G04*
G04 #@! TF.GenerationSoftware,Altium Limited,Altium Designer,21.6.1 (37)*
G04*
G04 Layer_Color=16711935*
%FSLAX25Y25*%
%MOIN*%
G70*
G04*
G04 #@! TF.SameCoordinates,3883BF2F-BC99-4846-9409-8211DB2FD588*
G04*
G04*
G04 #@! TF.FilePolarity,Positive*
G04*
G01*
G75*
%ADD11C,0.00500*%
%ADD12C,0.00787*%
%ADD60C,0.00394*%
D11*
X146535Y208248D02*
G03*
X146535Y208248I-1815J0D01*
G01*
X139602Y231752D02*
X277398D01*
X139602Y203248D02*
X277398D01*
X28520Y243134D02*
Y384866D01*
X343480D01*
Y243134D02*
Y384866D01*
X28520Y243134D02*
X343480D01*
D12*
X313559Y240378D02*
G03*
X313559Y240378I-394J0D01*
G01*
D60*
X244937Y62898D02*
X287063D01*
X244937Y57780D02*
Y76284D01*
X287063Y57780D02*
Y76284D01*
X244937D02*
X287063D01*
X244937Y57780D02*
X287063D01*
X244937Y36898D02*
X287063D01*
X244937Y31780D02*
Y50283D01*
X287063Y31780D02*
Y50283D01*
X244937D02*
X287063D01*
X244937Y31780D02*
X287063D01*
X188437Y71102D02*
X230563D01*
Y57717D02*
Y76221D01*
X188437Y57717D02*
Y76221D01*
Y57717D02*
X230563D01*
X188437Y76221D02*
X230563D01*
X188937Y45602D02*
X231063D01*
Y32217D02*
Y50721D01*
X188937Y32217D02*
Y50721D01*
Y32217D02*
X231063D01*
X188937Y50721D02*
X231063D01*
M02*
