G04*
G04 #@! TF.GenerationSoftware,Altium Limited,Altium Designer,21.6.1 (37)*
G04*
G04 Layer_Color=255*
%FSLAX25Y25*%
%MOIN*%
G70*
G04*
G04 #@! TF.SameCoordinates,3883BF2F-BC99-4846-9409-8211DB2FD588*
G04*
G04*
G04 #@! TF.FilePolarity,Positive*
G04*
G01*
G75*
%ADD38C,0.05512*%
%ADD39C,0.13386*%
%ADD40R,0.07284X0.07284*%
%ADD41C,0.07284*%
%ADD42R,0.05906X0.05906*%
%ADD43C,0.05906*%
%ADD44C,0.06299*%
%ADD45C,0.05200*%
%ADD46R,0.05200X0.05200*%
%ADD47R,0.06299X0.06299*%
%ADD48C,0.06299*%
%ADD49C,0.05150*%
%ADD50R,0.05150X0.05150*%
%ADD51C,0.19685*%
%ADD52C,0.05937*%
%ADD53R,0.05937X0.05937*%
%ADD54R,0.04724X0.04724*%
%ADD55C,0.04724*%
%ADD56R,0.04724X0.04724*%
%ADD57R,0.07284X0.07284*%
D38*
X77500Y160000D02*
D03*
Y190000D02*
D03*
X199500Y180000D02*
D03*
X229500D02*
D03*
X274000Y180500D02*
D03*
X244000D02*
D03*
X281500Y14500D02*
D03*
X251500D02*
D03*
X227500Y107000D02*
D03*
X257500D02*
D03*
X185000Y88000D02*
D03*
X215000D02*
D03*
Y108000D02*
D03*
X185000D02*
D03*
X214500Y147500D02*
D03*
X184500D02*
D03*
X78000Y79500D02*
D03*
Y109500D02*
D03*
X92000Y79000D02*
D03*
Y109000D02*
D03*
X250000Y87500D02*
D03*
X280000D02*
D03*
X227500Y126000D02*
D03*
X257500D02*
D03*
X190500Y180000D02*
D03*
X160500D02*
D03*
X287500D02*
D03*
X317500D02*
D03*
X338000Y16000D02*
D03*
X308000D02*
D03*
X338500Y36000D02*
D03*
X308500D02*
D03*
X224500Y14500D02*
D03*
X194500D02*
D03*
X114500Y189500D02*
D03*
Y159500D02*
D03*
X215000Y127500D02*
D03*
X185000D02*
D03*
X94500Y189500D02*
D03*
Y159500D02*
D03*
D39*
X354331Y19685D02*
D03*
X330709Y216535D02*
D03*
X51181D02*
D03*
X118110Y19685D02*
D03*
D40*
X87000Y33000D02*
D03*
X67500D02*
D03*
D41*
X87000Y53000D02*
D03*
X67500D02*
D03*
X230500Y149000D02*
D03*
D42*
X43500Y41500D02*
D03*
Y75000D02*
D03*
X328000Y73000D02*
D03*
D43*
X43500Y31500D02*
D03*
Y65000D02*
D03*
X328000Y63000D02*
D03*
D44*
X57000Y125000D02*
D03*
Y135000D02*
D03*
Y97000D02*
D03*
Y107000D02*
D03*
X58000Y182500D02*
D03*
Y192500D02*
D03*
X57500Y154000D02*
D03*
Y164000D02*
D03*
D45*
X273500Y232500D02*
D03*
Y202500D02*
D03*
X263500Y232500D02*
D03*
Y202500D02*
D03*
X143500Y232500D02*
D03*
X153500D02*
D03*
Y202500D02*
D03*
X163500Y232500D02*
D03*
X173500D02*
D03*
X183500D02*
D03*
X193500D02*
D03*
X203500D02*
D03*
X253500D02*
D03*
X243500D02*
D03*
X233500D02*
D03*
X223500D02*
D03*
X253500Y202500D02*
D03*
X243500D02*
D03*
X233500D02*
D03*
X223500D02*
D03*
X163500D02*
D03*
X173500D02*
D03*
X183500D02*
D03*
X193500D02*
D03*
X203500D02*
D03*
X213500D02*
D03*
Y232500D02*
D03*
D46*
X143500Y202500D02*
D03*
D47*
X276000Y69000D02*
D03*
Y43000D02*
D03*
X199500Y65000D02*
D03*
X200000Y39500D02*
D03*
D48*
X266000Y69000D02*
D03*
X256000D02*
D03*
X266000Y43000D02*
D03*
X256000D02*
D03*
X209500Y65000D02*
D03*
X219500D02*
D03*
X210000Y39500D02*
D03*
X220000D02*
D03*
D49*
X303000Y117500D02*
D03*
Y107500D02*
D03*
X273000D02*
D03*
X350000Y115500D02*
D03*
Y105500D02*
D03*
X320000D02*
D03*
X350000Y151000D02*
D03*
Y141000D02*
D03*
X320000D02*
D03*
X303000Y149500D02*
D03*
Y139500D02*
D03*
X273000D02*
D03*
D50*
Y117500D02*
D03*
X320000Y115500D02*
D03*
Y151000D02*
D03*
X273000Y149500D02*
D03*
D51*
X38362Y375024D02*
D03*
X333638D02*
D03*
X38362Y252976D02*
D03*
X333638D02*
D03*
D52*
X161984Y251008D02*
D03*
X171984D02*
D03*
X181984D02*
D03*
X191984D02*
D03*
X201984D02*
D03*
X211984D02*
D03*
X221984D02*
D03*
X231984D02*
D03*
X241984D02*
D03*
X251984D02*
D03*
X261984D02*
D03*
X271984D02*
D03*
X281984D02*
D03*
X291984D02*
D03*
X301984D02*
D03*
D53*
X311984D02*
D03*
D54*
X131500Y73000D02*
D03*
D55*
Y103000D02*
D03*
X112000Y135500D02*
D03*
X82000D02*
D03*
X151500Y136500D02*
D03*
X141500D02*
D03*
D56*
X161500D02*
D03*
D57*
X250500Y149000D02*
D03*
M02*
