G04*
G04 #@! TF.GenerationSoftware,Altium Limited,Altium Designer,21.6.1 (37)*
G04*
G04 Layer_Color=8388736*
%FSLAX25Y25*%
%MOIN*%
G70*
G04*
G04 #@! TF.SameCoordinates,3883BF2F-BC99-4846-9409-8211DB2FD588*
G04*
G04*
G04 #@! TF.FilePolarity,Positive*
G04*
G01*
G75*
%ADD59C,0.00800*%
D59*
X377900Y400000D02*
G03*
X377500Y400400I-400J0D01*
G01*
X377900Y400000D02*
G03*
X377500Y400400I-400J0D01*
G01*
Y-400D02*
G03*
X377900Y0I0J400D01*
G01*
X377500Y-400D02*
G03*
X377900Y0I0J400D01*
G01*
X0Y400400D02*
G03*
X-400Y400000I0J-400D01*
G01*
X0Y400400D02*
G03*
X-400Y400000I0J-400D01*
G01*
Y0D02*
G03*
X0Y-400I400J0D01*
G01*
X-400Y0D02*
G03*
X0Y-400I400J0D01*
G01*
X377900Y400000D02*
G03*
X377500Y400400I-400J0D01*
G01*
X377900Y400000D02*
G03*
X377500Y400400I-400J0D01*
G01*
Y-400D02*
G03*
X377900Y0I0J400D01*
G01*
X377500Y-400D02*
G03*
X377900Y0I0J400D01*
G01*
X0Y400400D02*
G03*
X-400Y400000I0J-400D01*
G01*
X0Y400400D02*
G03*
X-400Y400000I0J-400D01*
G01*
Y0D02*
G03*
X0Y-400I400J0D01*
G01*
X-400Y0D02*
G03*
X0Y-400I400J0D01*
G01*
X14000Y400400D02*
G03*
X13600Y400000I0J-400D01*
G01*
X14000Y400400D02*
G03*
X13600Y400000I0J-400D01*
G01*
Y0D02*
G03*
X14000Y-400I400J0D01*
G01*
X13600Y0D02*
G03*
X14000Y-400I400J0D01*
G01*
X377900Y0D02*
Y400000D01*
X0Y400400D02*
X377500D01*
X0Y-400D02*
X377500D01*
X-400Y0D02*
Y400000D01*
X377900Y0D02*
Y400000D01*
X0Y400400D02*
X377500D01*
X0Y-400D02*
X377500D01*
X-400Y0D02*
Y400000D01*
M02*
