G04*
G04 #@! TF.GenerationSoftware,Altium Limited,Altium Designer,21.6.1 (37)*
G04*
G04 Layer_Color=65535*
%FSLAX25Y25*%
%MOIN*%
G70*
G04*
G04 #@! TF.SameCoordinates,3883BF2F-BC99-4846-9409-8211DB2FD588*
G04*
G04*
G04 #@! TF.FilePolarity,Positive*
G04*
G01*
G75*
%ADD10C,0.00984*%
%ADD11C,0.00500*%
%ADD12C,0.00787*%
%ADD13C,0.00591*%
%ADD14C,0.01000*%
D10*
X87496Y24256D02*
G03*
X87496Y24256I-492J0D01*
G01*
X284996Y73724D02*
G03*
X284996Y73724I-492J0D01*
G01*
Y47724D02*
G03*
X284996Y47724I-492J0D01*
G01*
X191488Y60276D02*
G03*
X191488Y60276I-492J0D01*
G01*
X191988Y34776D02*
G03*
X191988Y34776I-492J0D01*
G01*
X67996Y24256D02*
G03*
X67996Y24256I-492J0D01*
G01*
X259736Y149004D02*
G03*
X259736Y149004I-492J0D01*
G01*
D11*
X35346Y135709D02*
G03*
X35346Y124291I0J-5709D01*
G01*
Y107709D02*
G03*
X35346Y96291I0J-5709D01*
G01*
X36347Y193209D02*
G03*
X36347Y181791I0J-5709D01*
G01*
X35846Y164709D02*
G03*
X35846Y153291I0J-5709D01*
G01*
X64874Y121339D02*
Y138661D01*
X39677Y121339D02*
X64874D01*
X39677D02*
Y138661D01*
X64874D01*
X35346Y124291D02*
X39677D01*
X35346Y135709D02*
X39677D01*
X139602Y203248D02*
Y231752D01*
X277398Y203248D02*
Y231752D01*
X283000Y102500D02*
Y122500D01*
X298000D01*
Y102500D02*
Y122500D01*
X283000Y102500D02*
X298000D01*
X330000Y100500D02*
Y120500D01*
X345000D01*
Y100500D02*
Y120500D01*
X330000Y100500D02*
X345000D01*
X330000Y136000D02*
Y156000D01*
X345000D01*
Y136000D02*
Y156000D01*
X330000Y136000D02*
X345000D01*
X283000Y134500D02*
Y154500D01*
X298000D01*
Y134500D02*
Y154500D01*
X283000Y134500D02*
X298000D01*
X343480Y266756D02*
Y361244D01*
X28520Y266756D02*
Y361244D01*
X48205Y384866D02*
X323795D01*
X48205Y243134D02*
X323795D01*
X64874Y93339D02*
Y110661D01*
X39677Y93339D02*
X64874D01*
X39677D02*
Y110661D01*
X64874D01*
X35346Y96291D02*
X39677D01*
X35346Y107709D02*
X39677D01*
X65874Y178839D02*
Y196161D01*
X40677Y178839D02*
X65874D01*
X40677D02*
Y196161D01*
X65874D01*
X36347Y181791D02*
X40677D01*
X36347Y193209D02*
X40677D01*
X65374Y150339D02*
Y167661D01*
X40177Y150339D02*
X65374D01*
X40177D02*
Y167661D01*
X65374D01*
X35846Y153291D02*
X40177D01*
X35846Y164709D02*
X40177D01*
D12*
X141965Y196831D02*
G03*
X141965Y196831I-394J0D01*
G01*
X313559Y240378D02*
G03*
X313559Y240378I-394J0D01*
G01*
X161500Y88000D02*
G03*
X161500Y88000I-30000J0D01*
G01*
X77500Y185000D02*
Y185900D01*
Y164100D02*
Y165000D01*
Y185000D02*
X80500D01*
Y165000D02*
Y185000D01*
X74500Y165000D02*
X80500D01*
X74500D02*
Y185000D01*
X77500D01*
X224500Y180000D02*
X225400D01*
X203600D02*
X204500D01*
X224500Y177000D02*
Y180000D01*
X204500Y177000D02*
X224500D01*
X204500D02*
Y183000D01*
X224500D01*
Y180000D02*
Y183000D01*
X82000Y26150D02*
Y59850D01*
X92000D01*
Y26150D02*
Y59850D01*
X82000Y26150D02*
X92000D01*
X38500Y26500D02*
X48500D01*
X38500D02*
Y46500D01*
X48500D01*
Y26500D02*
Y46500D01*
X244937Y59748D02*
X287063D01*
X244937Y57780D02*
X287063D01*
X244937Y76284D02*
X287063D01*
Y57780D02*
Y76284D01*
X244937Y57780D02*
Y76284D01*
X244937Y33748D02*
X287063D01*
X244937Y31780D02*
X287063D01*
X244937Y50283D02*
X287063D01*
Y31780D02*
Y50283D01*
X244937Y31780D02*
Y50283D01*
X188437Y74252D02*
X230563D01*
X188437Y76221D02*
X230563D01*
X188437Y57717D02*
X230563D01*
X188437D02*
Y76221D01*
X230563Y57717D02*
Y76221D01*
X188937Y48752D02*
X231063D01*
X188937Y50721D02*
X231063D01*
X188937Y32217D02*
X231063D01*
X188937D02*
Y50721D01*
X231063Y32217D02*
Y50721D01*
X248100Y180500D02*
X249000D01*
X269000D02*
X269900D01*
X249000D02*
Y183500D01*
X269000D01*
Y177500D02*
Y183500D01*
X249000Y177500D02*
X269000D01*
X249000D02*
Y180500D01*
X255600Y14500D02*
X256500D01*
X276500D02*
X277400D01*
X256500D02*
Y17500D01*
X276500D01*
Y11500D02*
Y17500D01*
X256500Y11500D02*
X276500D01*
X256500D02*
Y14500D01*
X252500Y107000D02*
X253400D01*
X231600D02*
X232500D01*
X252500Y104000D02*
Y107000D01*
X232500Y104000D02*
X252500D01*
X232500D02*
Y110000D01*
X252500D01*
Y107000D02*
Y110000D01*
X210000Y88000D02*
X210900D01*
X189100D02*
X190000D01*
X210000Y85000D02*
Y88000D01*
X190000Y85000D02*
X210000D01*
X190000D02*
Y91000D01*
X210000D01*
Y88000D02*
Y91000D01*
Y108000D02*
Y111000D01*
X190000D02*
X210000D01*
X190000Y105000D02*
Y111000D01*
Y105000D02*
X210000D01*
Y108000D01*
X189100D02*
X190000D01*
X210000D02*
X210900D01*
X209500Y147500D02*
Y150500D01*
X189500D02*
X209500D01*
X189500Y144500D02*
Y150500D01*
Y144500D02*
X209500D01*
Y147500D01*
X188600D02*
X189500D01*
X209500D02*
X210400D01*
X62500Y26150D02*
Y59850D01*
X72500D01*
Y26150D02*
Y59850D01*
X62500Y26150D02*
X72500D01*
X38500Y60000D02*
X48500D01*
X38500D02*
Y80000D01*
X48500D01*
Y60000D02*
Y80000D01*
X78000Y84500D02*
X81000D01*
Y104500D01*
X75000D02*
X81000D01*
X75000Y84500D02*
Y104500D01*
Y84500D02*
X78000D01*
Y104500D02*
Y105400D01*
Y83600D02*
Y84500D01*
X92000Y84000D02*
X95000D01*
Y104000D01*
X89000D02*
X95000D01*
X89000Y84000D02*
Y104000D01*
Y84000D02*
X92000D01*
Y104000D02*
Y104900D01*
Y83100D02*
Y84000D01*
X119500Y128000D02*
Y143000D01*
X74500Y128000D02*
X119500D01*
X74500D02*
Y143000D01*
X119500D01*
X255000Y84500D02*
Y87500D01*
Y84500D02*
X275000D01*
Y90500D01*
X255000D02*
X275000D01*
X255000Y87500D02*
Y90500D01*
X275000Y87500D02*
X275900D01*
X254100D02*
X255000D01*
X232500Y123000D02*
Y126000D01*
Y123000D02*
X252500D01*
Y129000D01*
X232500D02*
X252500D01*
X232500Y126000D02*
Y129000D01*
X252500Y126000D02*
X253400D01*
X231600D02*
X232500D01*
X185500Y180000D02*
Y183000D01*
X165500D02*
X185500D01*
X165500Y177000D02*
Y183000D01*
Y177000D02*
X185500D01*
Y180000D01*
X164600D02*
X165500D01*
X185500D02*
X186400D01*
X292500Y177000D02*
Y180000D01*
Y177000D02*
X312500D01*
Y183000D01*
X292500D02*
X312500D01*
X292500Y180000D02*
Y183000D01*
X312500Y180000D02*
X313400D01*
X291600D02*
X292500D01*
X333000Y16000D02*
Y19000D01*
X313000D02*
X333000D01*
X313000Y13000D02*
Y19000D01*
Y13000D02*
X333000D01*
Y16000D01*
X312100D02*
X313000D01*
X333000D02*
X333900D01*
X333500Y36000D02*
Y39000D01*
X313500D02*
X333500D01*
X313500Y33000D02*
Y39000D01*
Y33000D02*
X333500D01*
Y36000D01*
X312600D02*
X313500D01*
X333500D02*
X334400D01*
X219500Y14500D02*
Y17500D01*
X199500D02*
X219500D01*
X199500Y11500D02*
Y17500D01*
Y11500D02*
X219500D01*
Y14500D01*
X198600D02*
X199500D01*
X219500D02*
X220400D01*
X111500Y184500D02*
X114500D01*
X111500Y164500D02*
Y184500D01*
Y164500D02*
X117500D01*
Y184500D01*
X114500D02*
X117500D01*
X114500Y163600D02*
Y164500D01*
Y184500D02*
Y185400D01*
X171500Y126500D02*
Y146500D01*
X126500D02*
X171500D01*
X126500Y136500D02*
Y146500D01*
Y136500D02*
X131500D01*
Y126500D02*
Y136500D01*
Y126500D02*
X171500D01*
X323000Y58000D02*
X333000D01*
X323000D02*
Y78000D01*
X333000D01*
Y58000D02*
Y78000D01*
X223650Y144000D02*
X257350D01*
X223650D02*
Y154000D01*
X257350D01*
Y144000D02*
Y154000D01*
X210000Y127500D02*
Y130500D01*
X190000D02*
X210000D01*
X190000Y124500D02*
Y130500D01*
Y124500D02*
X210000D01*
Y127500D01*
X189100D02*
X190000D01*
X210000D02*
X210900D01*
X91500Y184500D02*
X94500D01*
X91500Y164500D02*
Y184500D01*
Y164500D02*
X97500D01*
Y184500D01*
X94500D02*
X97500D01*
X94500Y163600D02*
Y164500D01*
Y184500D02*
Y185400D01*
D13*
X131551Y55985D02*
Y52049D01*
X133519Y54017D02*
X129583D01*
D14*
X86599Y68198D02*
X85599Y69198D01*
X83600D01*
X82600Y68198D01*
Y67199D01*
X83600Y66199D01*
X85599D01*
X86599Y65199D01*
Y64200D01*
X85599Y63200D01*
X83600D01*
X82600Y64200D01*
X92597Y63200D02*
X88598D01*
X92597Y67199D01*
Y68198D01*
X91597Y69198D01*
X89598D01*
X88598Y68198D01*
X39100Y49900D02*
Y55898D01*
X42099D01*
X43099Y54898D01*
Y52899D01*
X42099Y51899D01*
X39100D01*
X49097Y49900D02*
X45098D01*
X49097Y53899D01*
Y54898D01*
X48097Y55898D01*
X46098D01*
X45098Y54898D01*
X30400Y147898D02*
Y141900D01*
X33399D01*
X34399Y142900D01*
Y146898D01*
X33399Y147898D01*
X30400D01*
X40397Y141900D02*
X36398D01*
X40397Y145899D01*
Y146898D01*
X39397Y147898D01*
X37398D01*
X36398Y146898D01*
X125001Y221999D02*
Y217001D01*
X126001Y216001D01*
X128000D01*
X129000Y217001D01*
Y221999D01*
X130999Y216001D02*
X132999D01*
X131999D01*
Y221999D01*
X130999Y220999D01*
X183000Y114400D02*
Y120398D01*
X185999D01*
X186999Y119398D01*
Y117399D01*
X185999Y116399D01*
X183000D01*
X184999D02*
X186999Y114400D01*
X188998D02*
X190997D01*
X189998D01*
Y120398D01*
X188998Y119398D01*
X197995Y120398D02*
X193996D01*
Y117399D01*
X195996Y118399D01*
X196995D01*
X197995Y117399D01*
Y115400D01*
X196995Y114400D01*
X194996D01*
X193996Y115400D01*
X318200Y129798D02*
Y124800D01*
X319200Y123800D01*
X321199D01*
X322199Y124800D01*
Y129798D01*
X328197D02*
X324198D01*
Y126799D01*
X326197Y127799D01*
X327197D01*
X328197Y126799D01*
Y124800D01*
X327197Y123800D01*
X325198D01*
X324198Y124800D01*
X318200Y165198D02*
Y160200D01*
X319200Y159200D01*
X321199D01*
X322199Y160200D01*
Y165198D01*
X327197Y159200D02*
Y165198D01*
X324198Y162199D01*
X328197D01*
X271200Y131798D02*
Y126800D01*
X272200Y125800D01*
X274199D01*
X275199Y126800D01*
Y131798D01*
X277198Y130798D02*
X278198Y131798D01*
X280197D01*
X281197Y130798D01*
Y129799D01*
X280197Y128799D01*
X279197D01*
X280197D01*
X281197Y127799D01*
Y126800D01*
X280197Y125800D01*
X278198D01*
X277198Y126800D01*
X271200Y163798D02*
Y158800D01*
X272200Y157800D01*
X274199D01*
X275199Y158800D01*
Y163798D01*
X281197Y157800D02*
X277198D01*
X281197Y161799D01*
Y162798D01*
X280197Y163798D01*
X278198D01*
X277198Y162798D01*
X228299Y162398D02*
X227299Y163398D01*
X225300D01*
X224300Y162398D01*
Y161399D01*
X225300Y160399D01*
X227299D01*
X228299Y159399D01*
Y158400D01*
X227299Y157400D01*
X225300D01*
X224300Y158400D01*
X230298Y162398D02*
X231298Y163398D01*
X233297D01*
X234297Y162398D01*
Y161399D01*
X233297Y160399D01*
X232297D01*
X233297D01*
X234297Y159399D01*
Y158400D01*
X233297Y157400D01*
X231298D01*
X230298Y158400D01*
X67099Y68198D02*
X66099Y69198D01*
X64100D01*
X63100Y68198D01*
Y67199D01*
X64100Y66199D01*
X66099D01*
X67099Y65199D01*
Y64200D01*
X66099Y63200D01*
X64100D01*
X63100Y64200D01*
X69098Y63200D02*
X71097D01*
X70098D01*
Y69198D01*
X69098Y68198D01*
X92100Y195500D02*
Y201498D01*
X95099D01*
X96099Y200498D01*
Y198499D01*
X95099Y197499D01*
X92100D01*
X94099D02*
X96099Y195500D01*
X102097D02*
X98098D01*
X102097Y199499D01*
Y200498D01*
X101097Y201498D01*
X99098D01*
X98098Y200498D01*
X104096Y195500D02*
X106096D01*
X105096D01*
Y201498D01*
X104096Y200498D01*
X72003Y196001D02*
Y201999D01*
X75002D01*
X76001Y200999D01*
Y199000D01*
X75002Y198000D01*
X72003D01*
X74002D02*
X76001Y196001D01*
X81999D02*
X78001D01*
X81999Y200000D01*
Y200999D01*
X81000Y201999D01*
X79000D01*
X78001Y200999D01*
X83999D02*
X84998Y201999D01*
X86998D01*
X87997Y200999D01*
Y197001D01*
X86998Y196001D01*
X84998D01*
X83999Y197001D01*
Y200999D01*
X183000Y133900D02*
Y139898D01*
X185999D01*
X186999Y138898D01*
Y136899D01*
X185999Y135899D01*
X183000D01*
X184999D02*
X186999Y133900D01*
X188998D02*
X190997D01*
X189998D01*
Y139898D01*
X188998Y138898D01*
X193996Y134900D02*
X194996Y133900D01*
X196995D01*
X197995Y134900D01*
Y138898D01*
X196995Y139898D01*
X194996D01*
X193996Y138898D01*
Y137899D01*
X194996Y136899D01*
X197995D01*
X127100Y149900D02*
Y155898D01*
X130099D01*
X131099Y154898D01*
Y152899D01*
X130099Y151899D01*
X127100D01*
X129099D02*
X131099Y149900D01*
X133098D02*
X135097D01*
X134098D01*
Y155898D01*
X133098Y154898D01*
X138096D02*
X139096Y155898D01*
X141095D01*
X142095Y154898D01*
Y153899D01*
X141095Y152899D01*
X142095Y151899D01*
Y150900D01*
X141095Y149900D01*
X139096D01*
X138096Y150900D01*
Y151899D01*
X139096Y152899D01*
X138096Y153899D01*
Y154898D01*
X139096Y152899D02*
X141095D01*
X182500Y153900D02*
Y159898D01*
X185499D01*
X186499Y158898D01*
Y156899D01*
X185499Y155899D01*
X182500D01*
X184499D02*
X186499Y153900D01*
X188498D02*
X190497D01*
X189498D01*
Y159898D01*
X188498Y158898D01*
X197495Y159898D02*
X195496Y158898D01*
X193496Y156899D01*
Y154900D01*
X194496Y153900D01*
X196495D01*
X197495Y154900D01*
Y155899D01*
X196495Y156899D01*
X193496D01*
X112100Y195500D02*
Y201498D01*
X115099D01*
X116099Y200498D01*
Y198499D01*
X115099Y197499D01*
X112100D01*
X114099D02*
X116099Y195500D01*
X118098D02*
X120097D01*
X119098D01*
Y201498D01*
X118098Y200498D01*
X123096Y201498D02*
X127095D01*
Y200498D01*
X123096Y196500D01*
Y195500D01*
X249500Y20900D02*
Y26898D01*
X252499D01*
X253499Y25898D01*
Y23899D01*
X252499Y22899D01*
X249500D01*
X251499D02*
X253499Y20900D01*
X255498D02*
X257497D01*
X256498D01*
Y26898D01*
X255498Y25898D01*
X263495Y20900D02*
Y26898D01*
X260496Y23899D01*
X264495D01*
X192500Y20900D02*
Y26898D01*
X195499D01*
X196499Y25898D01*
Y23899D01*
X195499Y22899D01*
X192500D01*
X194499D02*
X196499Y20900D01*
X198498D02*
X200497D01*
X199498D01*
Y26898D01*
X198498Y25898D01*
X203496D02*
X204496Y26898D01*
X206495D01*
X207495Y25898D01*
Y24899D01*
X206495Y23899D01*
X205496D01*
X206495D01*
X207495Y22899D01*
Y21900D01*
X206495Y20900D01*
X204496D01*
X203496Y21900D01*
X285500Y186400D02*
Y192398D01*
X288499D01*
X289499Y191398D01*
Y189399D01*
X288499Y188399D01*
X285500D01*
X287499D02*
X289499Y186400D01*
X291498D02*
X293497D01*
X292498D01*
Y192398D01*
X291498Y191398D01*
X300495Y186400D02*
X296496D01*
X300495Y190399D01*
Y191398D01*
X299496Y192398D01*
X297496D01*
X296496Y191398D01*
X306000Y22400D02*
Y28398D01*
X308999D01*
X309999Y27398D01*
Y25399D01*
X308999Y24399D01*
X306000D01*
X307999D02*
X309999Y22400D01*
X311998D02*
X313997D01*
X312998D01*
Y28398D01*
X311998Y27398D01*
X316996Y22400D02*
X318996D01*
X317996D01*
Y28398D01*
X316996Y27398D01*
X306500Y42400D02*
Y48398D01*
X309499D01*
X310499Y47398D01*
Y45399D01*
X309499Y44399D01*
X306500D01*
X308499D02*
X310499Y42400D01*
X312498D02*
X314497D01*
X313498D01*
Y48398D01*
X312498Y47398D01*
X317496D02*
X318496Y48398D01*
X320496D01*
X321495Y47398D01*
Y43400D01*
X320496Y42400D01*
X318496D01*
X317496Y43400D01*
Y47398D01*
X254502Y186501D02*
Y192499D01*
X257501D01*
X258500Y191499D01*
Y189500D01*
X257501Y188500D01*
X254502D01*
X256501D02*
X258500Y186501D01*
X260500Y187501D02*
X261499Y186501D01*
X263499D01*
X264498Y187501D01*
Y191499D01*
X263499Y192499D01*
X261499D01*
X260500Y191499D01*
Y190500D01*
X261499Y189500D01*
X264498D01*
X208002Y186001D02*
Y191999D01*
X211001D01*
X212000Y190999D01*
Y189000D01*
X211001Y188000D01*
X208002D01*
X210001D02*
X212000Y186001D01*
X214000Y190999D02*
X214999Y191999D01*
X216999D01*
X217998Y190999D01*
Y190000D01*
X216999Y189000D01*
X217998Y188000D01*
Y187001D01*
X216999Y186001D01*
X214999D01*
X214000Y187001D01*
Y188000D01*
X214999Y189000D01*
X214000Y190000D01*
Y190999D01*
X214999Y189000D02*
X216999D01*
X158500Y186400D02*
Y192398D01*
X161499D01*
X162499Y191398D01*
Y189399D01*
X161499Y188399D01*
X158500D01*
X160499D02*
X162499Y186400D01*
X164498Y192398D02*
X168497D01*
Y191398D01*
X164498Y187400D01*
Y186400D01*
X225500Y113400D02*
Y119398D01*
X228499D01*
X229499Y118398D01*
Y116399D01*
X228499Y115399D01*
X225500D01*
X227499D02*
X229499Y113400D01*
X235497Y119398D02*
X233497Y118398D01*
X231498Y116399D01*
Y114400D01*
X232498Y113400D01*
X234497D01*
X235497Y114400D01*
Y115399D01*
X234497Y116399D01*
X231498D01*
X225500Y132400D02*
Y138398D01*
X228499D01*
X229499Y137398D01*
Y135399D01*
X228499Y134399D01*
X225500D01*
X227499D02*
X229499Y132400D01*
X235497Y138398D02*
X231498D01*
Y135399D01*
X233497Y136399D01*
X234497D01*
X235497Y135399D01*
Y133400D01*
X234497Y132400D01*
X232498D01*
X231498Y133400D01*
X248000Y93900D02*
Y99898D01*
X250999D01*
X251999Y98898D01*
Y96899D01*
X250999Y95899D01*
X248000D01*
X249999D02*
X251999Y93900D01*
X256997D02*
Y99898D01*
X253998Y96899D01*
X257997D01*
X183000Y94400D02*
Y100398D01*
X185999D01*
X186999Y99398D01*
Y97399D01*
X185999Y96399D01*
X183000D01*
X184999D02*
X186999Y94400D01*
X188998Y99398D02*
X189998Y100398D01*
X191997D01*
X192997Y99398D01*
Y98399D01*
X191997Y97399D01*
X190997D01*
X191997D01*
X192997Y96399D01*
Y95400D01*
X191997Y94400D01*
X189998D01*
X188998Y95400D01*
X89600Y115000D02*
Y120998D01*
X92599D01*
X93599Y119998D01*
Y117999D01*
X92599Y116999D01*
X89600D01*
X91599D02*
X93599Y115000D01*
X99597D02*
X95598D01*
X99597Y118999D01*
Y119998D01*
X98597Y120998D01*
X96598D01*
X95598Y119998D01*
X75600Y115500D02*
Y121498D01*
X78599D01*
X79599Y120498D01*
Y118499D01*
X78599Y117499D01*
X75600D01*
X77599D02*
X79599Y115500D01*
X81598D02*
X83597D01*
X82598D01*
Y121498D01*
X81598Y120498D01*
X294000Y38501D02*
Y42499D01*
X293001Y43499D01*
X291001D01*
X290002Y42499D01*
Y38501D01*
X291001Y37501D01*
X293001D01*
X292001Y39500D02*
X294000Y37501D01*
X293001D02*
X294000Y38501D01*
X298999Y37501D02*
Y43499D01*
X296000Y40500D01*
X299998D01*
X180500Y39001D02*
Y42999D01*
X179501Y43999D01*
X177501D01*
X176502Y42999D01*
Y39001D01*
X177501Y38001D01*
X179501D01*
X178501Y40000D02*
X180500Y38001D01*
X179501D02*
X180500Y39001D01*
X182500Y42999D02*
X183499Y43999D01*
X185499D01*
X186498Y42999D01*
Y42000D01*
X185499Y41000D01*
X184499D01*
X185499D01*
X186498Y40000D01*
Y39001D01*
X185499Y38001D01*
X183499D01*
X182500Y39001D01*
X293500Y65501D02*
Y69499D01*
X292501Y70499D01*
X290501D01*
X289502Y69499D01*
Y65501D01*
X290501Y64501D01*
X292501D01*
X291501Y66500D02*
X293500Y64501D01*
X292501D02*
X293500Y65501D01*
X299498Y64501D02*
X295500D01*
X299498Y68500D01*
Y69499D01*
X298499Y70499D01*
X296499D01*
X295500Y69499D01*
X180000Y64001D02*
Y67999D01*
X179000Y68999D01*
X177001D01*
X176001Y67999D01*
Y64001D01*
X177001Y63001D01*
X179000D01*
X178001Y65000D02*
X180000Y63001D01*
X179000D02*
X180000Y64001D01*
X181999Y63001D02*
X183999D01*
X182999D01*
Y68999D01*
X181999Y67999D01*
X323600Y81400D02*
Y87398D01*
X326599D01*
X327599Y86398D01*
Y84399D01*
X326599Y83399D01*
X323600D01*
X329598Y86398D02*
X330598Y87398D01*
X332597D01*
X333597Y86398D01*
Y85399D01*
X332597Y84399D01*
X331597D01*
X332597D01*
X333597Y83399D01*
Y82400D01*
X332597Y81400D01*
X330598D01*
X329598Y82400D01*
X39100Y83400D02*
Y89398D01*
X42099D01*
X43099Y88398D01*
Y86399D01*
X42099Y85399D01*
X39100D01*
X45098Y83400D02*
X47097D01*
X46098D01*
Y89398D01*
X45098Y88398D01*
X71002Y237499D02*
Y231501D01*
X74001D01*
X75001Y232501D01*
Y236499D01*
X74001Y237499D01*
X71002D01*
X80999Y236499D02*
X79999Y237499D01*
X78000D01*
X77000Y236499D01*
Y235500D01*
X78000Y234500D01*
X79999D01*
X80999Y233500D01*
Y232501D01*
X79999Y231501D01*
X78000D01*
X77000Y232501D01*
X82998Y231501D02*
X84998D01*
X83998D01*
Y237499D01*
X82998Y236499D01*
X31400Y205398D02*
Y199400D01*
X34399D01*
X35399Y200400D01*
Y204398D01*
X34399Y205398D01*
X31400D01*
X40397Y199400D02*
Y205398D01*
X37398Y202399D01*
X41397D01*
X30900Y176898D02*
Y170900D01*
X33899D01*
X34899Y171900D01*
Y175898D01*
X33899Y176898D01*
X30900D01*
X36898Y175898D02*
X37898Y176898D01*
X39897D01*
X40897Y175898D01*
Y174899D01*
X39897Y173899D01*
X38897D01*
X39897D01*
X40897Y172899D01*
Y171900D01*
X39897Y170900D01*
X37898D01*
X36898Y171900D01*
X30400Y119898D02*
Y113900D01*
X33399D01*
X34399Y114900D01*
Y118898D01*
X33399Y119898D01*
X30400D01*
X36398Y113900D02*
X38397D01*
X37398D01*
Y119898D01*
X36398Y118898D01*
X109000Y123499D02*
X108001Y124499D01*
X106001D01*
X105002Y123499D01*
Y119501D01*
X106001Y118501D01*
X108001D01*
X109000Y119501D01*
X114998Y118501D02*
X111000D01*
X114998Y122500D01*
Y123499D01*
X113999Y124499D01*
X111999D01*
X111000Y123499D01*
X79099Y151398D02*
X78099Y152398D01*
X76100D01*
X75100Y151398D01*
Y147400D01*
X76100Y146400D01*
X78099D01*
X79099Y147400D01*
X81098Y146400D02*
X83097D01*
X82098D01*
Y152398D01*
X81098Y151398D01*
M02*
