G04*
G04 #@! TF.GenerationSoftware,Altium Limited,Altium Designer,21.6.1 (37)*
G04*
G04 Layer_Physical_Order=1*
G04 Layer_Color=255*
%FSLAX25Y25*%
%MOIN*%
G70*
G04*
G04 #@! TF.SameCoordinates,3883BF2F-BC99-4846-9409-8211DB2FD588*
G04*
G04*
G04 #@! TF.FilePolarity,Positive*
G04*
G01*
G75*
%ADD36C,0.02500*%
%ADD37C,0.01500*%
%ADD38C,0.05512*%
%ADD39C,0.13386*%
%ADD40R,0.07284X0.07284*%
%ADD41C,0.07284*%
%ADD42R,0.05906X0.05906*%
%ADD43C,0.05906*%
%ADD44C,0.06299*%
%ADD45C,0.05200*%
%ADD46R,0.05200X0.05200*%
%ADD47R,0.06299X0.06299*%
%ADD48C,0.06299*%
%ADD49C,0.05150*%
%ADD50R,0.05150X0.05150*%
%ADD51C,0.19685*%
%ADD52C,0.05937*%
%ADD53R,0.05937X0.05937*%
%ADD54R,0.04724X0.04724*%
%ADD55C,0.04724*%
%ADD56R,0.04724X0.04724*%
%ADD57R,0.07284X0.07284*%
%ADD58C,0.05000*%
G36*
X319163Y154837D02*
X318972Y154375D01*
X316625D01*
Y147625D01*
X323375D01*
Y149972D01*
X323837Y150163D01*
X340516Y133484D01*
X340420Y133000D01*
Y41155D01*
X338821Y39556D01*
X338032D01*
X337127Y39314D01*
X336317Y38845D01*
X335655Y38183D01*
X335186Y37372D01*
X334944Y36468D01*
Y35532D01*
X335186Y34628D01*
X335655Y33817D01*
X336317Y33155D01*
X337127Y32686D01*
X338032Y32444D01*
X338968D01*
X339873Y32686D01*
X340683Y33155D01*
X341345Y33817D01*
X341814Y34628D01*
X342056Y35532D01*
Y36468D01*
X341814Y37372D01*
X341555Y37820D01*
X343117Y39382D01*
X343460Y39895D01*
X343580Y40500D01*
Y129766D01*
X344042Y129958D01*
X349000Y125000D01*
Y118726D01*
X348697Y118645D01*
X347928Y118201D01*
X347300Y117572D01*
X346855Y116803D01*
X346625Y115944D01*
Y115056D01*
X346855Y114197D01*
X347300Y113428D01*
X347928Y112800D01*
X348697Y112355D01*
X349000Y112274D01*
Y108726D01*
X348697Y108645D01*
X347928Y108201D01*
X347300Y107572D01*
X346855Y106803D01*
X346625Y105944D01*
Y105056D01*
X346855Y104197D01*
X347300Y103428D01*
X347928Y102799D01*
X348697Y102355D01*
X349000Y102274D01*
Y32500D01*
X321000Y4500D01*
X65000D01*
X33500Y32500D01*
Y109000D01*
Y130000D01*
X54707Y151207D01*
X55075Y150839D01*
X55976Y150320D01*
X56980Y150050D01*
X58020D01*
X59025Y150320D01*
X59925Y150839D01*
X60660Y151575D01*
X61180Y152476D01*
X61450Y153480D01*
Y154520D01*
X61180Y155525D01*
X60660Y156425D01*
X60293Y156793D01*
X65000Y161500D01*
X73703D01*
X74087Y161000D01*
X73944Y160468D01*
Y159532D01*
X74186Y158627D01*
X74655Y157817D01*
X75317Y157155D01*
X76127Y156686D01*
X77032Y156444D01*
X77968D01*
X78873Y156686D01*
X79683Y157155D01*
X80345Y157817D01*
X80814Y158627D01*
X81056Y159532D01*
Y160468D01*
X80913Y161000D01*
X81297Y161500D01*
X91049D01*
X91299Y161067D01*
X91186Y160872D01*
X90944Y159968D01*
Y159032D01*
X91186Y158127D01*
X91655Y157317D01*
X92317Y156655D01*
X93128Y156186D01*
X94032Y155944D01*
X94968D01*
X95872Y156186D01*
X96683Y156655D01*
X97345Y157317D01*
X97814Y158127D01*
X98056Y159032D01*
Y159968D01*
X97814Y160872D01*
X97701Y161067D01*
X97951Y161500D01*
X111049D01*
X111299Y161067D01*
X111186Y160872D01*
X110944Y159968D01*
Y159032D01*
X111186Y158127D01*
X111655Y157317D01*
X112317Y156655D01*
X113128Y156186D01*
X114032Y155944D01*
X114968D01*
X115873Y156186D01*
X116683Y156655D01*
X117345Y157317D01*
X117814Y158127D01*
X118056Y159032D01*
Y159968D01*
X117814Y160872D01*
X117701Y161067D01*
X117951Y161500D01*
X232265D01*
X239920Y153845D01*
Y143500D01*
X240040Y142895D01*
X240383Y142383D01*
X244383Y138382D01*
X244895Y138040D01*
X245500Y137920D01*
X270016D01*
X270300Y137428D01*
X270928Y136800D01*
X271697Y136355D01*
X272556Y136125D01*
X273444D01*
X274303Y136355D01*
X275072Y136800D01*
X275700Y137428D01*
X276145Y138197D01*
X276375Y139056D01*
Y139944D01*
X276145Y140803D01*
X275700Y141572D01*
X275072Y142201D01*
X274303Y142645D01*
X273444Y142875D01*
X272556D01*
X271697Y142645D01*
X270928Y142201D01*
X270300Y141572D01*
X270016Y141080D01*
X246155D01*
X243080Y144155D01*
Y154500D01*
X242960Y155105D01*
X242618Y155617D01*
X237197Y161038D01*
X237388Y161500D01*
X304765D01*
X310920Y155345D01*
Y145000D01*
X311040Y144395D01*
X311383Y143883D01*
X315221Y140044D01*
X315734Y139702D01*
X316338Y139581D01*
X316922D01*
X317300Y138928D01*
X317928Y138300D01*
X318697Y137855D01*
X319556Y137625D01*
X320444D01*
X321303Y137855D01*
X322072Y138300D01*
X322701Y138928D01*
X323145Y139697D01*
X323375Y140556D01*
Y141444D01*
X323145Y142303D01*
X322701Y143072D01*
X322072Y143701D01*
X321303Y144145D01*
X320444Y144375D01*
X319556D01*
X318697Y144145D01*
X317928Y143701D01*
X317300Y143072D01*
X316700Y143035D01*
X314080Y145655D01*
Y156000D01*
X313960Y156605D01*
X313617Y157117D01*
X309697Y161038D01*
X309888Y161500D01*
X312500D01*
X319163Y154837D01*
D02*
G37*
%LPC*%
G36*
X303444Y152875D02*
X302556D01*
X301697Y152645D01*
X300928Y152200D01*
X300300Y151572D01*
X299855Y150803D01*
X299796Y150580D01*
X295500D01*
X294895Y150460D01*
X294383Y150118D01*
X271845Y127580D01*
X260694D01*
X260345Y128183D01*
X259683Y128845D01*
X258873Y129314D01*
X257968Y129556D01*
X257032D01*
X256128Y129314D01*
X255317Y128845D01*
X254655Y128183D01*
X254186Y127373D01*
X253944Y126468D01*
Y125532D01*
X254186Y124627D01*
X254655Y123817D01*
X255317Y123155D01*
X256128Y122686D01*
X257032Y122444D01*
X257968D01*
X258873Y122686D01*
X259683Y123155D01*
X260345Y123817D01*
X260694Y124420D01*
X272500D01*
X273105Y124540D01*
X273618Y124882D01*
X296155Y147420D01*
X300308D01*
X300928Y146800D01*
X301697Y146355D01*
X302556Y146125D01*
X303444D01*
X304303Y146355D01*
X305072Y146800D01*
X305700Y147428D01*
X306145Y148197D01*
X306375Y149056D01*
Y149944D01*
X306145Y150803D01*
X305700Y151572D01*
X305072Y152200D01*
X304303Y152645D01*
X303444Y152875D01*
D02*
G37*
G36*
X276375D02*
X269625D01*
Y146125D01*
X276375D01*
Y152875D01*
D02*
G37*
G36*
X254942Y153442D02*
X246058D01*
Y144558D01*
X254942D01*
Y153442D01*
D02*
G37*
G36*
X231085D02*
X229915D01*
X228786Y153139D01*
X227773Y152554D01*
X226946Y151727D01*
X226361Y150714D01*
X226058Y149585D01*
Y148415D01*
X226361Y147286D01*
X226946Y146273D01*
X227773Y145446D01*
X228786Y144861D01*
X229915Y144558D01*
X231085D01*
X232214Y144861D01*
X233227Y145446D01*
X234054Y146273D01*
X234639Y147286D01*
X234942Y148415D01*
Y149585D01*
X234639Y150714D01*
X234054Y151727D01*
X233227Y152554D01*
X232214Y153139D01*
X231085Y153442D01*
D02*
G37*
G36*
X214968Y151056D02*
X214032D01*
X213127Y150814D01*
X212317Y150345D01*
X211655Y149683D01*
X211186Y148872D01*
X210944Y147968D01*
Y147032D01*
X211186Y146127D01*
X211655Y145317D01*
X212317Y144655D01*
X213127Y144186D01*
X214032Y143944D01*
X214968D01*
X215873Y144186D01*
X216683Y144655D01*
X217345Y145317D01*
X217814Y146127D01*
X218056Y147032D01*
Y147968D01*
X217814Y148872D01*
X217345Y149683D01*
X216683Y150345D01*
X215873Y150814D01*
X214968Y151056D01*
D02*
G37*
G36*
X184968D02*
X184032D01*
X183127Y150814D01*
X182317Y150345D01*
X181655Y149683D01*
X181186Y148872D01*
X180944Y147968D01*
Y147032D01*
X181186Y146127D01*
X181655Y145317D01*
X182317Y144655D01*
X183127Y144186D01*
X184032Y143944D01*
X184968D01*
X185872Y144186D01*
X186683Y144655D01*
X187345Y145317D01*
X187814Y146127D01*
X188056Y147032D01*
Y147968D01*
X187814Y148872D01*
X187345Y149683D01*
X186683Y150345D01*
X185872Y150814D01*
X184968Y151056D01*
D02*
G37*
G36*
X304000Y142933D02*
Y140500D01*
X306433D01*
X306331Y140880D01*
X305861Y141695D01*
X305195Y142360D01*
X304380Y142831D01*
X304000Y142933D01*
D02*
G37*
G36*
X302000D02*
X301620Y142831D01*
X300805Y142360D01*
X300139Y141695D01*
X299669Y140880D01*
X299567Y140500D01*
X302000D01*
Y142933D01*
D02*
G37*
G36*
X306433Y138500D02*
X304000D01*
Y136067D01*
X304380Y136169D01*
X305195Y136639D01*
X305861Y137305D01*
X306331Y138120D01*
X306433Y138500D01*
D02*
G37*
G36*
X302000D02*
X299567D01*
X299669Y138120D01*
X300139Y137305D01*
X300805Y136639D01*
X301620Y136169D01*
X302000Y136067D01*
Y138500D01*
D02*
G37*
G36*
X151916Y139662D02*
X151084D01*
X150279Y139447D01*
X149558Y139030D01*
X148970Y138442D01*
X148553Y137721D01*
X148338Y136916D01*
Y136084D01*
X148553Y135279D01*
X148970Y134558D01*
X149558Y133970D01*
X150279Y133553D01*
X151084Y133338D01*
X151916D01*
X152721Y133553D01*
X153442Y133970D01*
X154030Y134558D01*
X154447Y135279D01*
X154662Y136084D01*
Y136916D01*
X154447Y137721D01*
X154030Y138442D01*
X153442Y139030D01*
X152721Y139447D01*
X151916Y139662D01*
D02*
G37*
G36*
X141916D02*
X141084D01*
X140279Y139447D01*
X139558Y139030D01*
X138970Y138442D01*
X138553Y137721D01*
X138338Y136916D01*
Y136084D01*
X138553Y135279D01*
X138970Y134558D01*
X139558Y133970D01*
X140279Y133553D01*
X141084Y133338D01*
X141916D01*
X142721Y133553D01*
X143442Y133970D01*
X144030Y134558D01*
X144447Y135279D01*
X144662Y136084D01*
Y136916D01*
X144447Y137721D01*
X144030Y138442D01*
X143442Y139030D01*
X142721Y139447D01*
X141916Y139662D01*
D02*
G37*
G36*
X82416Y138662D02*
X81584D01*
X80779Y138447D01*
X80058Y138030D01*
X79470Y137442D01*
X79053Y136721D01*
X78838Y135916D01*
Y135084D01*
X79053Y134279D01*
X79470Y133558D01*
X80058Y132970D01*
X80779Y132553D01*
X81584Y132338D01*
X82416D01*
X83221Y132553D01*
X83942Y132970D01*
X84530Y133558D01*
X84947Y134279D01*
X85162Y135084D01*
Y135916D01*
X84947Y136721D01*
X84530Y137442D01*
X83942Y138030D01*
X83221Y138447D01*
X82416Y138662D01*
D02*
G37*
G36*
X164662Y139662D02*
X158338D01*
Y136294D01*
X153634Y131590D01*
X118866D01*
X115162Y135294D01*
Y135916D01*
X114947Y136721D01*
X114530Y137442D01*
X113942Y138030D01*
X113221Y138447D01*
X112416Y138662D01*
X111584D01*
X110779Y138447D01*
X110058Y138030D01*
X109470Y137442D01*
X109053Y136721D01*
X108838Y135916D01*
Y135294D01*
X100522Y126978D01*
X100069Y126300D01*
X99910Y125500D01*
X99910Y125500D01*
Y89866D01*
X92572Y82528D01*
X92468Y82556D01*
X91532D01*
X90627Y82314D01*
X89817Y81845D01*
X89155Y81183D01*
X88686Y80373D01*
X88444Y79468D01*
Y78532D01*
X88686Y77627D01*
X89155Y76817D01*
X89817Y76155D01*
X90627Y75686D01*
X91532Y75444D01*
X92468D01*
X93372Y75686D01*
X94183Y76155D01*
X94845Y76817D01*
X95314Y77627D01*
X95556Y78532D01*
Y79468D01*
X95528Y79572D01*
X103478Y87522D01*
X103478Y87522D01*
X103931Y88200D01*
X104090Y89000D01*
X104090Y89000D01*
Y124634D01*
X111732Y132276D01*
X112268D01*
X116522Y128022D01*
X117200Y127569D01*
X118000Y127410D01*
X154500D01*
X154500Y127410D01*
X155300Y127569D01*
X155978Y128022D01*
X161294Y133338D01*
X164662D01*
Y134410D01*
X166134D01*
X174910Y125634D01*
Y116000D01*
X174910Y116000D01*
X175069Y115200D01*
X175522Y114522D01*
X181472Y108572D01*
X181444Y108468D01*
Y107532D01*
X181686Y106628D01*
X182155Y105817D01*
X182817Y105155D01*
X183627Y104686D01*
X184532Y104444D01*
X185468D01*
X186372Y104686D01*
X187183Y105155D01*
X187845Y105817D01*
X188314Y106628D01*
X188556Y107532D01*
Y108468D01*
X188528Y108572D01*
X195366Y115410D01*
X269625D01*
Y114125D01*
X276375D01*
Y120875D01*
X269625D01*
Y119590D01*
X194500D01*
X194500Y119590D01*
X193700Y119431D01*
X193022Y118978D01*
X185572Y111528D01*
X185468Y111556D01*
X184532D01*
X184428Y111528D01*
X179090Y116866D01*
Y126500D01*
X179090Y126500D01*
X178931Y127300D01*
X178478Y127978D01*
X178478Y127978D01*
X168478Y137978D01*
X167800Y138431D01*
X167000Y138590D01*
X167000Y138590D01*
X164662D01*
Y139662D01*
D02*
G37*
G36*
X57520Y138950D02*
X56480D01*
X55475Y138680D01*
X54575Y138161D01*
X53839Y137425D01*
X53320Y136524D01*
X53050Y135520D01*
Y134480D01*
X53320Y133475D01*
X53839Y132575D01*
X54575Y131840D01*
X55475Y131320D01*
X56480Y131050D01*
X57520D01*
X58525Y131320D01*
X59425Y131840D01*
X60160Y132575D01*
X60680Y133475D01*
X60950Y134480D01*
Y135520D01*
X60680Y136524D01*
X60160Y137425D01*
X59425Y138161D01*
X58525Y138680D01*
X57520Y138950D01*
D02*
G37*
G36*
X215468Y131056D02*
X214532D01*
X213628Y130814D01*
X212817Y130345D01*
X212155Y129683D01*
X211686Y128873D01*
X211444Y127968D01*
Y127032D01*
X211686Y126128D01*
X212155Y125317D01*
X212817Y124655D01*
X213628Y124186D01*
X214532Y123944D01*
X215468D01*
X216372Y124186D01*
X217183Y124655D01*
X217845Y125317D01*
X218314Y126128D01*
X218556Y127032D01*
Y127968D01*
X218314Y128873D01*
X217845Y129683D01*
X217183Y130345D01*
X216372Y130814D01*
X215468Y131056D01*
D02*
G37*
G36*
X185468D02*
X184532D01*
X183627Y130814D01*
X182817Y130345D01*
X182155Y129683D01*
X181686Y128873D01*
X181444Y127968D01*
Y127032D01*
X181686Y126128D01*
X182155Y125317D01*
X182817Y124655D01*
X183627Y124186D01*
X184532Y123944D01*
X185468D01*
X186372Y124186D01*
X187183Y124655D01*
X187845Y125317D01*
X188314Y126128D01*
X188556Y127032D01*
Y127968D01*
X188314Y128873D01*
X187845Y129683D01*
X187183Y130345D01*
X186372Y130814D01*
X185468Y131056D01*
D02*
G37*
G36*
X227968Y129556D02*
X227032D01*
X226128Y129314D01*
X225317Y128845D01*
X224655Y128183D01*
X224186Y127373D01*
X223944Y126468D01*
Y125532D01*
X224186Y124627D01*
X224655Y123817D01*
X225317Y123155D01*
X226128Y122686D01*
X227032Y122444D01*
X227968D01*
X228872Y122686D01*
X229683Y123155D01*
X230345Y123817D01*
X230814Y124627D01*
X231056Y125532D01*
Y126468D01*
X230814Y127373D01*
X230345Y128183D01*
X229683Y128845D01*
X228872Y129314D01*
X227968Y129556D01*
D02*
G37*
G36*
X57520Y128950D02*
X56480D01*
X55475Y128680D01*
X54575Y128161D01*
X53839Y127425D01*
X53320Y126524D01*
X53050Y125520D01*
Y124480D01*
X53320Y123476D01*
X53839Y122575D01*
X54575Y121839D01*
X55475Y121320D01*
X56480Y121050D01*
X57520D01*
X58525Y121320D01*
X59425Y121839D01*
X60160Y122575D01*
X60680Y123476D01*
X60950Y124480D01*
Y125520D01*
X60680Y126524D01*
X60160Y127425D01*
X59425Y128161D01*
X58525Y128680D01*
X57520Y128950D01*
D02*
G37*
G36*
X303444Y120875D02*
X302556D01*
X301697Y120645D01*
X300928Y120201D01*
X300300Y119572D01*
X299855Y118803D01*
X299625Y117944D01*
Y117056D01*
X299772Y116507D01*
X284845Y101580D01*
X235155D01*
X230876Y105859D01*
X231056Y106532D01*
Y107468D01*
X230814Y108372D01*
X230345Y109183D01*
X229683Y109845D01*
X228872Y110314D01*
X227968Y110556D01*
X227032D01*
X226128Y110314D01*
X225317Y109845D01*
X224655Y109183D01*
X224186Y108372D01*
X223944Y107468D01*
Y106532D01*
X224186Y105628D01*
X224655Y104817D01*
X225317Y104155D01*
X226128Y103686D01*
X227032Y103444D01*
X227968D01*
X228641Y103624D01*
X233383Y98883D01*
X233895Y98540D01*
X234500Y98420D01*
X257600D01*
X257693Y97966D01*
X257683Y97920D01*
X257022Y97478D01*
X257022Y97478D01*
X250572Y91028D01*
X250468Y91056D01*
X249532D01*
X248627Y90814D01*
X247817Y90345D01*
X247155Y89683D01*
X246686Y88872D01*
X246444Y87968D01*
Y87032D01*
X246686Y86128D01*
X247155Y85317D01*
X247817Y84655D01*
X248627Y84186D01*
X249532Y83944D01*
X250468D01*
X251373Y84186D01*
X252183Y84655D01*
X252845Y85317D01*
X253314Y86128D01*
X253556Y87032D01*
Y87968D01*
X253528Y88072D01*
X259366Y93910D01*
X292423D01*
X292974Y93359D01*
X293726Y92925D01*
X294566Y92700D01*
X295434D01*
X296274Y92925D01*
X297026Y93359D01*
X297641Y93974D01*
X298075Y94726D01*
X298300Y95565D01*
Y96434D01*
X298075Y97274D01*
X297641Y98026D01*
X297026Y98641D01*
X296274Y99075D01*
X295434Y99300D01*
X294566D01*
X293726Y99075D01*
X292974Y98641D01*
X292423Y98090D01*
X286263D01*
X286200Y98269D01*
X286180Y98590D01*
X286617Y98883D01*
X302007Y114272D01*
X302556Y114125D01*
X303444D01*
X304303Y114355D01*
X305072Y114799D01*
X305700Y115428D01*
X306145Y116197D01*
X306375Y117056D01*
Y117944D01*
X306145Y118803D01*
X305700Y119572D01*
X305072Y120201D01*
X304303Y120645D01*
X303444Y120875D01*
D02*
G37*
G36*
X323375Y118875D02*
X316625D01*
Y112125D01*
X323375D01*
Y118875D01*
D02*
G37*
G36*
X304000Y110933D02*
Y108500D01*
X306433D01*
X306331Y108880D01*
X305861Y109695D01*
X305195Y110361D01*
X304380Y110831D01*
X304000Y110933D01*
D02*
G37*
G36*
X302000D02*
X301620Y110831D01*
X300805Y110361D01*
X300139Y109695D01*
X299669Y108880D01*
X299567Y108500D01*
X302000D01*
Y110933D01*
D02*
G37*
G36*
X58000Y111028D02*
Y108000D01*
X61028D01*
X60867Y108602D01*
X60321Y109548D01*
X59548Y110320D01*
X58602Y110867D01*
X58000Y111028D01*
D02*
G37*
G36*
X56000D02*
X55398Y110867D01*
X54452Y110320D01*
X53680Y109548D01*
X53133Y108602D01*
X52972Y108000D01*
X56000D01*
Y111028D01*
D02*
G37*
G36*
X78468Y113056D02*
X77532D01*
X76627Y112814D01*
X75817Y112345D01*
X75155Y111683D01*
X74686Y110872D01*
X74444Y109968D01*
Y109032D01*
X74624Y108359D01*
X64845Y98580D01*
X60648D01*
X60160Y99425D01*
X59425Y100161D01*
X58525Y100680D01*
X57520Y100950D01*
X56480D01*
X55475Y100680D01*
X54575Y100161D01*
X53839Y99425D01*
X53320Y98524D01*
X53050Y97520D01*
Y96480D01*
X53320Y95476D01*
X53839Y94575D01*
X54575Y93840D01*
X55475Y93320D01*
X56480Y93050D01*
X57520D01*
X58525Y93320D01*
X59425Y93840D01*
X60160Y94575D01*
X60648Y95420D01*
X65500D01*
X66105Y95540D01*
X66618Y95882D01*
X76859Y106124D01*
X77532Y105944D01*
X78468D01*
X79373Y106186D01*
X80183Y106655D01*
X80845Y107317D01*
X81314Y108127D01*
X81556Y109032D01*
Y109968D01*
X81314Y110872D01*
X80845Y111683D01*
X80183Y112345D01*
X79373Y112814D01*
X78468Y113056D01*
D02*
G37*
G36*
X92468Y112556D02*
X91532D01*
X90627Y112314D01*
X89817Y111845D01*
X89155Y111183D01*
X88686Y110372D01*
X88444Y109468D01*
Y108532D01*
X88686Y107627D01*
X89155Y106817D01*
X89817Y106155D01*
X90627Y105686D01*
X91532Y105444D01*
X92468D01*
X93372Y105686D01*
X94183Y106155D01*
X94845Y106817D01*
X95314Y107627D01*
X95556Y108532D01*
Y109468D01*
X95314Y110372D01*
X94845Y111183D01*
X94183Y111845D01*
X93372Y112314D01*
X92468Y112556D01*
D02*
G37*
G36*
X215468Y111556D02*
X214532D01*
X213628Y111314D01*
X212817Y110845D01*
X212155Y110183D01*
X211686Y109372D01*
X211444Y108468D01*
Y107532D01*
X211686Y106628D01*
X212155Y105817D01*
X212817Y105155D01*
X213628Y104686D01*
X214532Y104444D01*
X215468D01*
X216372Y104686D01*
X217183Y105155D01*
X217845Y105817D01*
X218314Y106628D01*
X218556Y107532D01*
Y108468D01*
X218314Y109372D01*
X217845Y110183D01*
X217183Y110845D01*
X216372Y111314D01*
X215468Y111556D01*
D02*
G37*
G36*
X273444Y110875D02*
X272556D01*
X271697Y110645D01*
X270928Y110201D01*
X270300Y109572D01*
X269855Y108803D01*
X269625Y107944D01*
Y107056D01*
X269855Y106197D01*
X270300Y105428D01*
X270928Y104799D01*
X271697Y104355D01*
X272556Y104125D01*
X273444D01*
X274303Y104355D01*
X275072Y104799D01*
X275700Y105428D01*
X276145Y106197D01*
X276375Y107056D01*
Y107944D01*
X276145Y108803D01*
X275700Y109572D01*
X275072Y110201D01*
X274303Y110645D01*
X273444Y110875D01*
D02*
G37*
G36*
X306433Y106500D02*
X304000D01*
Y104067D01*
X304380Y104169D01*
X305195Y104639D01*
X305861Y105305D01*
X306331Y106120D01*
X306433Y106500D01*
D02*
G37*
G36*
X302000D02*
X299567D01*
X299669Y106120D01*
X300139Y105305D01*
X300805Y104639D01*
X301620Y104169D01*
X302000Y104067D01*
Y106500D01*
D02*
G37*
G36*
X132500Y106213D02*
Y104000D01*
X134713D01*
X134633Y104298D01*
X134190Y105064D01*
X133564Y105690D01*
X132798Y106133D01*
X132500Y106213D01*
D02*
G37*
G36*
X130500Y106213D02*
X130202Y106133D01*
X129436Y105690D01*
X128810Y105064D01*
X128367Y104298D01*
X128287Y104000D01*
X130500D01*
Y106213D01*
D02*
G37*
G36*
X257968Y110556D02*
X257032D01*
X256128Y110314D01*
X255317Y109845D01*
X254655Y109183D01*
X254186Y108372D01*
X253944Y107468D01*
Y106532D01*
X254186Y105628D01*
X254655Y104817D01*
X255317Y104155D01*
X256128Y103686D01*
X257032Y103444D01*
X257968D01*
X258873Y103686D01*
X259683Y104155D01*
X260345Y104817D01*
X260814Y105628D01*
X261056Y106532D01*
Y107468D01*
X260814Y108372D01*
X260345Y109183D01*
X259683Y109845D01*
X258873Y110314D01*
X257968Y110556D01*
D02*
G37*
G36*
X61028Y106000D02*
X58000D01*
Y102972D01*
X58602Y103133D01*
X59548Y103680D01*
X60321Y104452D01*
X60867Y105398D01*
X61028Y106000D01*
D02*
G37*
G36*
X56000D02*
X52972D01*
X53133Y105398D01*
X53680Y104452D01*
X54452Y103680D01*
X55398Y103133D01*
X56000Y102972D01*
Y106000D01*
D02*
G37*
G36*
X320444Y108875D02*
X319556D01*
X318697Y108645D01*
X317928Y108201D01*
X317300Y107572D01*
X316855Y106803D01*
X316625Y105944D01*
Y105056D01*
X316855Y104197D01*
X317300Y103428D01*
X317928Y102799D01*
X318697Y102355D01*
X319556Y102125D01*
X320444D01*
X321303Y102355D01*
X322072Y102799D01*
X322701Y103428D01*
X323145Y104197D01*
X323375Y105056D01*
Y105944D01*
X323145Y106803D01*
X322701Y107572D01*
X322072Y108201D01*
X321303Y108645D01*
X320444Y108875D01*
D02*
G37*
G36*
X134713Y102000D02*
X132500D01*
Y99787D01*
X132798Y99867D01*
X133564Y100310D01*
X134190Y100936D01*
X134633Y101702D01*
X134713Y102000D01*
D02*
G37*
G36*
X130500D02*
X128287D01*
X128367Y101702D01*
X128810Y100936D01*
X129436Y100310D01*
X130202Y99867D01*
X130500Y99787D01*
Y102000D01*
D02*
G37*
G36*
X215468Y91556D02*
X214532D01*
X213628Y91314D01*
X212817Y90845D01*
X212155Y90183D01*
X211686Y89372D01*
X211444Y88468D01*
Y87532D01*
X211686Y86628D01*
X212155Y85817D01*
X212817Y85155D01*
X213628Y84686D01*
X214532Y84444D01*
X215468D01*
X216372Y84686D01*
X217183Y85155D01*
X217845Y85817D01*
X218314Y86628D01*
X218556Y87532D01*
Y88468D01*
X218314Y89372D01*
X217845Y90183D01*
X217183Y90845D01*
X216372Y91314D01*
X215468Y91556D01*
D02*
G37*
G36*
X185468D02*
X184532D01*
X183627Y91314D01*
X182817Y90845D01*
X182155Y90183D01*
X181686Y89372D01*
X181444Y88468D01*
Y87532D01*
X181686Y86628D01*
X182155Y85817D01*
X182817Y85155D01*
X183627Y84686D01*
X184532Y84444D01*
X185468D01*
X186372Y84686D01*
X187183Y85155D01*
X187845Y85817D01*
X188314Y86628D01*
X188556Y87532D01*
Y88468D01*
X188314Y89372D01*
X187845Y90183D01*
X187183Y90845D01*
X186372Y91314D01*
X185468Y91556D01*
D02*
G37*
G36*
X280468Y91056D02*
X279532D01*
X278627Y90814D01*
X277817Y90345D01*
X277155Y89683D01*
X276686Y88872D01*
X276444Y87968D01*
Y87032D01*
X276686Y86128D01*
X277155Y85317D01*
X277817Y84655D01*
X278627Y84186D01*
X279532Y83944D01*
X280468D01*
X281372Y84186D01*
X282183Y84655D01*
X282845Y85317D01*
X283314Y86128D01*
X283556Y87032D01*
Y87968D01*
X283314Y88872D01*
X282845Y89683D01*
X282183Y90345D01*
X281372Y90814D01*
X280468Y91056D01*
D02*
G37*
G36*
X47453Y78953D02*
X44500D01*
Y76000D01*
X47453D01*
Y78953D01*
D02*
G37*
G36*
X42500D02*
X39547D01*
Y76000D01*
X42500D01*
Y78953D01*
D02*
G37*
G36*
X78468Y83056D02*
X77532D01*
X76627Y82814D01*
X75817Y82345D01*
X75155Y81683D01*
X74686Y80872D01*
X74444Y79968D01*
Y79032D01*
X74686Y78127D01*
X75155Y77317D01*
X75817Y76655D01*
X76627Y76186D01*
X77532Y75944D01*
X78468D01*
X79373Y76186D01*
X80183Y76655D01*
X80845Y77317D01*
X81314Y78127D01*
X81556Y79032D01*
Y79968D01*
X81314Y80872D01*
X80845Y81683D01*
X80183Y82345D01*
X79373Y82814D01*
X78468Y83056D01*
D02*
G37*
G36*
X47453Y74000D02*
X44500D01*
Y71047D01*
X47453D01*
Y74000D01*
D02*
G37*
G36*
X42500D02*
X39547D01*
Y71047D01*
X42500D01*
Y74000D01*
D02*
G37*
G36*
X313435Y76300D02*
X312565D01*
X311726Y76075D01*
X310974Y75641D01*
X310359Y75026D01*
X309925Y74274D01*
X309700Y73435D01*
Y72566D01*
X309833Y72068D01*
X293345Y55580D01*
X262398D01*
X262141Y56026D01*
X261526Y56641D01*
X260774Y57075D01*
X259934Y57300D01*
X259066D01*
X258226Y57075D01*
X257474Y56641D01*
X256859Y56026D01*
X256425Y55274D01*
X256200Y54435D01*
Y53566D01*
X256425Y52726D01*
X256859Y51974D01*
X257474Y51359D01*
X258226Y50925D01*
X259066Y50700D01*
X259934D01*
X260774Y50925D01*
X261526Y51359D01*
X262141Y51974D01*
X262398Y52420D01*
X294000D01*
X294605Y52540D01*
X295117Y52882D01*
X312068Y69833D01*
X312565Y69700D01*
X313435D01*
X314274Y69925D01*
X315026Y70359D01*
X315641Y70974D01*
X316075Y71726D01*
X316300Y72566D01*
Y73435D01*
X316075Y74274D01*
X315641Y75026D01*
X315026Y75641D01*
X314274Y76075D01*
X313435Y76300D01*
D02*
G37*
G36*
X331753Y76753D02*
X324247D01*
Y69247D01*
X331753D01*
Y76753D01*
D02*
G37*
G36*
X279950Y72950D02*
X272050D01*
Y65050D01*
X279950D01*
Y72950D01*
D02*
G37*
G36*
X266520D02*
X265480D01*
X264475Y72680D01*
X263575Y72161D01*
X262840Y71425D01*
X262320Y70525D01*
X262050Y69520D01*
Y68480D01*
X262320Y67475D01*
X262840Y66575D01*
X263575Y65839D01*
X264475Y65320D01*
X265480Y65050D01*
X266520D01*
X267525Y65320D01*
X268425Y65839D01*
X269161Y66575D01*
X269680Y67475D01*
X269950Y68480D01*
Y69520D01*
X269680Y70525D01*
X269161Y71425D01*
X268425Y72161D01*
X267525Y72680D01*
X266520Y72950D01*
D02*
G37*
G36*
X256520D02*
X255480D01*
X254475Y72680D01*
X253575Y72161D01*
X252839Y71425D01*
X252320Y70525D01*
X252050Y69520D01*
Y68480D01*
X252320Y67475D01*
X252839Y66575D01*
X253575Y65839D01*
X254475Y65320D01*
X255480Y65050D01*
X256520D01*
X257524Y65320D01*
X258425Y65839D01*
X259160Y66575D01*
X259680Y67475D01*
X259950Y68480D01*
Y69520D01*
X259680Y70525D01*
X259160Y71425D01*
X258425Y72161D01*
X257524Y72680D01*
X256520Y72950D01*
D02*
G37*
G36*
X43994Y68753D02*
X43006D01*
X42052Y68497D01*
X41196Y68003D01*
X40497Y67304D01*
X40003Y66448D01*
X39747Y65494D01*
Y64506D01*
X40003Y63551D01*
X40497Y62696D01*
X41196Y61997D01*
X42052Y61503D01*
X43006Y61247D01*
X43994D01*
X44949Y61503D01*
X45804Y61997D01*
X46503Y62696D01*
X46997Y63551D01*
X47253Y64506D01*
Y65494D01*
X46997Y66448D01*
X46503Y67304D01*
X45804Y68003D01*
X44949Y68497D01*
X43994Y68753D01*
D02*
G37*
G36*
X210020Y68950D02*
X208980D01*
X207976Y68680D01*
X207075Y68160D01*
X206340Y67425D01*
X205820Y66524D01*
X205550Y65520D01*
Y64480D01*
X205820Y63476D01*
X206340Y62575D01*
X207075Y61839D01*
X207976Y61320D01*
X208980Y61050D01*
X210020D01*
X211024Y61320D01*
X211925Y61839D01*
X212661Y62575D01*
X213180Y63476D01*
X213450Y64480D01*
Y65520D01*
X213180Y66524D01*
X212661Y67425D01*
X211925Y68160D01*
X211024Y68680D01*
X210020Y68950D01*
D02*
G37*
G36*
X203450D02*
X195550D01*
Y61050D01*
X203450D01*
Y68950D01*
D02*
G37*
G36*
X328494Y66753D02*
X327506D01*
X326552Y66497D01*
X325696Y66003D01*
X324997Y65304D01*
X324503Y64448D01*
X324247Y63494D01*
Y62506D01*
X324503Y61551D01*
X324997Y60696D01*
X325696Y59997D01*
X326552Y59503D01*
X327506Y59247D01*
X328494D01*
X329449Y59503D01*
X330304Y59997D01*
X331003Y60696D01*
X331497Y61551D01*
X331753Y62506D01*
Y63494D01*
X331497Y64448D01*
X331003Y65304D01*
X330304Y66003D01*
X329449Y66497D01*
X328494Y66753D01*
D02*
G37*
G36*
X87585Y57442D02*
X86415D01*
X85286Y57139D01*
X84273Y56554D01*
X83446Y55727D01*
X82861Y54714D01*
X82558Y53585D01*
Y52415D01*
X82861Y51286D01*
X83446Y50273D01*
X84273Y49446D01*
X85286Y48861D01*
X86415Y48558D01*
X87585D01*
X88714Y48861D01*
X89727Y49446D01*
X90554Y50273D01*
X91139Y51286D01*
X91442Y52415D01*
Y53585D01*
X91139Y54714D01*
X90554Y55727D01*
X89727Y56554D01*
X88714Y57139D01*
X87585Y57442D01*
D02*
G37*
G36*
X68085D02*
X66915D01*
X65786Y57139D01*
X64773Y56554D01*
X63946Y55727D01*
X63361Y54714D01*
X63058Y53585D01*
Y52415D01*
X63361Y51286D01*
X63946Y50273D01*
X64773Y49446D01*
X65786Y48861D01*
X66915Y48558D01*
X68085D01*
X69214Y48861D01*
X70227Y49446D01*
X71054Y50273D01*
X71639Y51286D01*
X71942Y52415D01*
Y53585D01*
X71639Y54714D01*
X71054Y55727D01*
X70227Y56554D01*
X69214Y57139D01*
X68085Y57442D01*
D02*
G37*
G36*
X257000Y47028D02*
Y44000D01*
X260028D01*
X259867Y44602D01*
X259320Y45548D01*
X258548Y46321D01*
X257602Y46867D01*
X257000Y47028D01*
D02*
G37*
G36*
X255000D02*
X254398Y46867D01*
X253452Y46321D01*
X252679Y45548D01*
X252133Y44602D01*
X251972Y44000D01*
X255000D01*
Y47028D01*
D02*
G37*
G36*
X221000Y43528D02*
Y40500D01*
X224028D01*
X223867Y41102D01*
X223321Y42048D01*
X222548Y42821D01*
X221602Y43367D01*
X221000Y43528D01*
D02*
G37*
G36*
X219000D02*
X218398Y43367D01*
X217452Y42821D01*
X216680Y42048D01*
X216133Y41102D01*
X215972Y40500D01*
X219000D01*
Y43528D01*
D02*
G37*
G36*
X279950Y46950D02*
X272050D01*
Y39050D01*
X279950D01*
Y46950D01*
D02*
G37*
G36*
X266520D02*
X265480D01*
X264475Y46680D01*
X263575Y46161D01*
X262840Y45425D01*
X262320Y44524D01*
X262050Y43520D01*
Y42480D01*
X262320Y41475D01*
X262840Y40575D01*
X263575Y39840D01*
X264475Y39320D01*
X265480Y39050D01*
X266520D01*
X267525Y39320D01*
X268425Y39840D01*
X269161Y40575D01*
X269680Y41475D01*
X269950Y42480D01*
Y43520D01*
X269680Y44524D01*
X269161Y45425D01*
X268425Y46161D01*
X267525Y46680D01*
X266520Y46950D01*
D02*
G37*
G36*
X260028Y42000D02*
X257000D01*
Y38972D01*
X257602Y39133D01*
X258548Y39680D01*
X259320Y40452D01*
X259867Y41398D01*
X260028Y42000D01*
D02*
G37*
G36*
X255000D02*
X251972D01*
X252133Y41398D01*
X252679Y40452D01*
X253452Y39680D01*
X254398Y39133D01*
X255000Y38972D01*
Y42000D01*
D02*
G37*
G36*
X47253Y45253D02*
X39747D01*
Y37747D01*
X47253D01*
Y45253D01*
D02*
G37*
G36*
X210520Y43450D02*
X209480D01*
X208475Y43180D01*
X207575Y42660D01*
X206839Y41925D01*
X206320Y41025D01*
X206050Y40020D01*
Y38980D01*
X206320Y37975D01*
X206839Y37075D01*
X207575Y36340D01*
X208475Y35820D01*
X209480Y35550D01*
X210520D01*
X211525Y35820D01*
X212425Y36340D01*
X213160Y37075D01*
X213680Y37975D01*
X213950Y38980D01*
Y40020D01*
X213680Y41025D01*
X213160Y41925D01*
X212425Y42660D01*
X211525Y43180D01*
X210520Y43450D01*
D02*
G37*
G36*
X203950D02*
X196050D01*
Y35550D01*
X203950D01*
Y43450D01*
D02*
G37*
G36*
X224028Y38500D02*
X221000D01*
Y35472D01*
X221602Y35633D01*
X222548Y36180D01*
X223321Y36952D01*
X223867Y37898D01*
X224028Y38500D01*
D02*
G37*
G36*
X219000D02*
X215972D01*
X216133Y37898D01*
X216680Y36952D01*
X217452Y36180D01*
X218398Y35633D01*
X219000Y35472D01*
Y38500D01*
D02*
G37*
G36*
X308968Y39556D02*
X308032D01*
X307127Y39314D01*
X306317Y38845D01*
X305655Y38183D01*
X305186Y37372D01*
X304944Y36468D01*
Y35532D01*
X305186Y34628D01*
X305655Y33817D01*
X306317Y33155D01*
X307127Y32686D01*
X308032Y32444D01*
X308968D01*
X309873Y32686D01*
X310683Y33155D01*
X311345Y33817D01*
X311814Y34628D01*
X312056Y35532D01*
Y36468D01*
X311814Y37372D01*
X311345Y38183D01*
X310683Y38845D01*
X309873Y39314D01*
X308968Y39556D01*
D02*
G37*
G36*
X91442Y37442D02*
X82558D01*
Y28558D01*
X91442D01*
Y37442D01*
D02*
G37*
G36*
X71942D02*
X63058D01*
Y28558D01*
X71942D01*
Y37442D01*
D02*
G37*
G36*
X43994Y35253D02*
X43006D01*
X42052Y34997D01*
X41196Y34503D01*
X40497Y33804D01*
X40003Y32948D01*
X39747Y31994D01*
Y31006D01*
X40003Y30051D01*
X40497Y29196D01*
X41196Y28497D01*
X42052Y28003D01*
X43006Y27747D01*
X43994D01*
X44949Y28003D01*
X45804Y28497D01*
X46503Y29196D01*
X46997Y30051D01*
X47253Y31006D01*
Y31994D01*
X46997Y32948D01*
X46503Y33804D01*
X45804Y34503D01*
X44949Y34997D01*
X43994Y35253D01*
D02*
G37*
G36*
X134662Y76162D02*
X128338D01*
Y69838D01*
X134662D01*
Y70910D01*
X137134D01*
X183522Y24522D01*
X183522Y24522D01*
X184200Y24069D01*
X185000Y23910D01*
X185000Y23910D01*
X228500D01*
X228500Y23910D01*
X229300Y24069D01*
X229978Y24522D01*
X236978Y31522D01*
X236978Y31522D01*
X237431Y32200D01*
X237590Y33000D01*
Y49000D01*
X237590Y49000D01*
X237431Y49800D01*
X236978Y50478D01*
X236978Y50478D01*
X223349Y64106D01*
X223450Y64480D01*
Y65520D01*
X223180Y66524D01*
X222660Y67425D01*
X221925Y68160D01*
X221024Y68680D01*
X220020Y68950D01*
X218980D01*
X217975Y68680D01*
X217075Y68160D01*
X216339Y67425D01*
X215820Y66524D01*
X215550Y65520D01*
Y64480D01*
X215820Y63476D01*
X216339Y62575D01*
X217075Y61839D01*
X217975Y61320D01*
X218980Y61050D01*
X220020D01*
X220394Y61150D01*
X233410Y48134D01*
Y33866D01*
X227634Y28090D01*
X185866D01*
X139478Y74478D01*
X138800Y74931D01*
X138000Y75090D01*
X138000Y75090D01*
X134662D01*
Y76162D01*
D02*
G37*
G36*
X252500Y18120D02*
Y15500D01*
X255120D01*
X255000Y15950D01*
X254505Y16806D01*
X253806Y17505D01*
X252950Y18000D01*
X252500Y18120D01*
D02*
G37*
G36*
X225500D02*
Y15500D01*
X228120D01*
X228000Y15950D01*
X227505Y16806D01*
X226806Y17505D01*
X225950Y18000D01*
X225500Y18120D01*
D02*
G37*
G36*
X223500D02*
X223050Y18000D01*
X222194Y17505D01*
X221495Y16806D01*
X221000Y15950D01*
X220880Y15500D01*
X223500D01*
Y18120D01*
D02*
G37*
G36*
X250500D02*
X250050Y18000D01*
X249194Y17505D01*
X248495Y16806D01*
X248000Y15950D01*
X247880Y15500D01*
X250500D01*
Y18120D01*
D02*
G37*
G36*
X308468Y19556D02*
X307532D01*
X306627Y19314D01*
X305817Y18845D01*
X305155Y18183D01*
X304686Y17372D01*
X304444Y16468D01*
Y15532D01*
X304686Y14627D01*
X305155Y13817D01*
X305817Y13155D01*
X306627Y12686D01*
X307532Y12444D01*
X308468D01*
X309372Y12686D01*
X310183Y13155D01*
X310845Y13817D01*
X311314Y14627D01*
X311556Y15532D01*
Y16468D01*
X311314Y17372D01*
X310845Y18183D01*
X310183Y18845D01*
X309372Y19314D01*
X308468Y19556D01*
D02*
G37*
G36*
X118848Y27178D02*
X117372D01*
X115925Y26890D01*
X114561Y26325D01*
X113334Y25505D01*
X112290Y24462D01*
X111470Y23234D01*
X110905Y21871D01*
X110617Y20423D01*
Y18947D01*
X110905Y17499D01*
X111470Y16136D01*
X112290Y14909D01*
X113334Y13865D01*
X114561Y13045D01*
X115925Y12480D01*
X117372Y12192D01*
X118848D01*
X120296Y12480D01*
X121660Y13045D01*
X122887Y13865D01*
X123930Y14909D01*
X124750Y16136D01*
X125315Y17499D01*
X125603Y18947D01*
Y20423D01*
X125315Y21871D01*
X124750Y23234D01*
X123930Y24462D01*
X122887Y25505D01*
X121660Y26325D01*
X120296Y26890D01*
X118848Y27178D01*
D02*
G37*
G36*
X281968Y18056D02*
X281032D01*
X280128Y17814D01*
X279317Y17345D01*
X278655Y16683D01*
X278186Y15872D01*
X277944Y14968D01*
Y14032D01*
X278186Y13127D01*
X278655Y12317D01*
X279317Y11655D01*
X280128Y11186D01*
X281032Y10944D01*
X281968D01*
X282873Y11186D01*
X283683Y11655D01*
X284345Y12317D01*
X284814Y13127D01*
X285056Y14032D01*
Y14968D01*
X284814Y15872D01*
X284345Y16683D01*
X283683Y17345D01*
X282873Y17814D01*
X281968Y18056D01*
D02*
G37*
G36*
X194968D02*
X194032D01*
X193128Y17814D01*
X192317Y17345D01*
X191655Y16683D01*
X191186Y15872D01*
X190944Y14968D01*
Y14032D01*
X191186Y13127D01*
X191655Y12317D01*
X192317Y11655D01*
X193128Y11186D01*
X194032Y10944D01*
X194968D01*
X195872Y11186D01*
X196683Y11655D01*
X197345Y12317D01*
X197814Y13127D01*
X198056Y14032D01*
Y14968D01*
X197814Y15872D01*
X197345Y16683D01*
X196683Y17345D01*
X195872Y17814D01*
X194968Y18056D01*
D02*
G37*
G36*
X255120Y13500D02*
X252500D01*
Y10880D01*
X252950Y11000D01*
X253806Y11495D01*
X254505Y12194D01*
X255000Y13050D01*
X255120Y13500D01*
D02*
G37*
G36*
X228120D02*
X225500D01*
Y10880D01*
X225950Y11000D01*
X226806Y11495D01*
X227505Y12194D01*
X228000Y13050D01*
X228120Y13500D01*
D02*
G37*
G36*
X223500D02*
X220880D01*
X221000Y13050D01*
X221495Y12194D01*
X222194Y11495D01*
X223050Y11000D01*
X223500Y10880D01*
Y13500D01*
D02*
G37*
G36*
X250500D02*
X247880D01*
X248000Y13050D01*
X248495Y12194D01*
X249194Y11495D01*
X250050Y11000D01*
X250500Y10880D01*
Y13500D01*
D02*
G37*
%LPD*%
D36*
X150000Y70000D02*
Y94500D01*
X131500Y103000D02*
X141500D01*
X150000Y94500D01*
Y70000D02*
X163500Y56500D01*
X326000Y14500D02*
Y44500D01*
X319000Y7500D02*
X326000Y14500D01*
X258500Y7500D02*
X319000D01*
X251500Y14500D02*
X258500Y7500D01*
X250000Y87500D02*
X258500Y96000D01*
X295000D01*
X303000Y101877D02*
X310877Y94000D01*
X330000D01*
X303000Y101877D02*
Y107500D01*
X330000Y94000D02*
X337500Y86500D01*
Y56000D02*
Y86500D01*
X326000Y44500D02*
X337500Y56000D01*
X194500Y117500D02*
X273000D01*
X185000Y108000D02*
X194500Y117500D01*
X236000Y220000D02*
X280000D01*
X223500Y232500D02*
X236000Y220000D01*
X233500Y232500D02*
Y248562D01*
X231984Y250078D02*
X233500Y248562D01*
X231984Y250078D02*
Y251008D01*
X102000Y89000D02*
Y125500D01*
X112000Y135500D01*
X92000Y79000D02*
X102000Y89000D01*
X167000Y136500D02*
X177000Y126500D01*
Y116000D02*
X185000Y108000D01*
X177000Y116000D02*
Y126500D01*
X161500Y136500D02*
X167000D01*
X154500Y129500D02*
X161500Y136500D01*
X118000Y129500D02*
X154500D01*
X112000Y135500D02*
X118000Y129500D01*
X219500Y65000D02*
X235500Y49000D01*
Y33000D02*
Y49000D01*
X228500Y26000D02*
X235500Y33000D01*
X138000Y73000D02*
X185000Y26000D01*
X228500D01*
X131500Y73000D02*
X138000D01*
X219273Y40227D02*
Y45727D01*
X208500Y56500D02*
X219273Y45727D01*
Y40227D02*
X220000Y39500D01*
X163500Y56500D02*
X208500D01*
D37*
X338500Y37000D02*
X342000Y40500D01*
Y133000D02*
X350000Y141000D01*
X342000Y40500D02*
Y133000D01*
X338500Y36000D02*
Y37000D01*
X285500Y100000D02*
X303000Y117500D01*
X234500Y100000D02*
X285500D01*
X227500Y107000D02*
X234500Y100000D01*
X312500Y145000D02*
Y156000D01*
X319838Y141162D02*
X320000Y141000D01*
X316338Y141162D02*
X319838D01*
X312500Y145000D02*
X316338Y141162D01*
X301000Y167500D02*
X312500Y156000D01*
X282000Y167500D02*
X301000D01*
X274006Y175494D02*
X282000Y167500D01*
X274000Y180500D02*
X274006Y180494D01*
Y175494D02*
Y180494D01*
X295500Y149000D02*
X302500D01*
X303000Y149500D01*
X272500Y126000D02*
X295500Y149000D01*
X257500Y126000D02*
X272500D01*
X241500Y143500D02*
X245500Y139500D01*
X273000D01*
X241500Y143500D02*
Y154500D01*
X232500Y163500D02*
X241500Y154500D01*
X200500Y163500D02*
X232500D01*
X190500Y173500D02*
X200500Y163500D01*
X190500Y173500D02*
Y180000D01*
X291984Y249807D02*
X293879Y247913D01*
Y205379D02*
Y247913D01*
X291984Y249807D02*
Y251008D01*
X284000Y195500D02*
X293879Y205379D01*
X227000Y195500D02*
X284000D01*
X280500Y215000D02*
X287500Y208000D01*
X235000Y215000D02*
X280500D01*
X228000Y222000D02*
X235000Y215000D01*
X199000Y222000D02*
X228000D01*
X193500Y227500D02*
X199000Y222000D01*
X193500Y227500D02*
Y232500D01*
X165976Y245000D02*
X171984Y251008D01*
X138500Y245000D02*
X165976D01*
X127000Y233500D02*
X138500Y245000D01*
X127000Y202000D02*
Y233500D01*
X114500Y189500D02*
X127000Y202000D01*
X259500Y54000D02*
X294000D01*
X313000Y73000D01*
X65500Y97000D02*
X78000Y109500D01*
X57000Y97000D02*
X65500D01*
D38*
X77500Y160000D02*
D03*
Y190000D02*
D03*
X199500Y180000D02*
D03*
X229500D02*
D03*
X274000Y180500D02*
D03*
X244000D02*
D03*
X281500Y14500D02*
D03*
X251500D02*
D03*
X227500Y107000D02*
D03*
X257500D02*
D03*
X185000Y88000D02*
D03*
X215000D02*
D03*
Y108000D02*
D03*
X185000D02*
D03*
X214500Y147500D02*
D03*
X184500D02*
D03*
X78000Y79500D02*
D03*
Y109500D02*
D03*
X92000Y79000D02*
D03*
Y109000D02*
D03*
X250000Y87500D02*
D03*
X280000D02*
D03*
X227500Y126000D02*
D03*
X257500D02*
D03*
X190500Y180000D02*
D03*
X160500D02*
D03*
X287500D02*
D03*
X317500D02*
D03*
X338000Y16000D02*
D03*
X308000D02*
D03*
X338500Y36000D02*
D03*
X308500D02*
D03*
X224500Y14500D02*
D03*
X194500D02*
D03*
X114500Y189500D02*
D03*
Y159500D02*
D03*
X215000Y127500D02*
D03*
X185000D02*
D03*
X94500Y189500D02*
D03*
Y159500D02*
D03*
D39*
X354331Y19685D02*
D03*
X330709Y216535D02*
D03*
X51181D02*
D03*
X118110Y19685D02*
D03*
D40*
X87000Y33000D02*
D03*
X67500D02*
D03*
D41*
X87000Y53000D02*
D03*
X67500D02*
D03*
X230500Y149000D02*
D03*
D42*
X43500Y41500D02*
D03*
Y75000D02*
D03*
X328000Y73000D02*
D03*
D43*
X43500Y31500D02*
D03*
Y65000D02*
D03*
X328000Y63000D02*
D03*
D44*
X57000Y125000D02*
D03*
Y135000D02*
D03*
Y97000D02*
D03*
Y107000D02*
D03*
X58000Y182500D02*
D03*
Y192500D02*
D03*
X57500Y154000D02*
D03*
Y164000D02*
D03*
D45*
X273500Y232500D02*
D03*
Y202500D02*
D03*
X263500Y232500D02*
D03*
Y202500D02*
D03*
X143500Y232500D02*
D03*
X153500D02*
D03*
Y202500D02*
D03*
X163500Y232500D02*
D03*
X173500D02*
D03*
X183500D02*
D03*
X193500D02*
D03*
X203500D02*
D03*
X253500D02*
D03*
X243500D02*
D03*
X233500D02*
D03*
X223500D02*
D03*
X253500Y202500D02*
D03*
X243500D02*
D03*
X233500D02*
D03*
X223500D02*
D03*
X163500D02*
D03*
X173500D02*
D03*
X183500D02*
D03*
X193500D02*
D03*
X203500D02*
D03*
X213500D02*
D03*
Y232500D02*
D03*
D46*
X143500Y202500D02*
D03*
D47*
X276000Y69000D02*
D03*
Y43000D02*
D03*
X199500Y65000D02*
D03*
X200000Y39500D02*
D03*
D48*
X266000Y69000D02*
D03*
X256000D02*
D03*
X266000Y43000D02*
D03*
X256000D02*
D03*
X209500Y65000D02*
D03*
X219500D02*
D03*
X210000Y39500D02*
D03*
X220000D02*
D03*
D49*
X303000Y117500D02*
D03*
Y107500D02*
D03*
X273000D02*
D03*
X350000Y115500D02*
D03*
Y105500D02*
D03*
X320000D02*
D03*
X350000Y151000D02*
D03*
Y141000D02*
D03*
X320000D02*
D03*
X303000Y149500D02*
D03*
Y139500D02*
D03*
X273000D02*
D03*
D50*
Y117500D02*
D03*
X320000Y115500D02*
D03*
Y151000D02*
D03*
X273000Y149500D02*
D03*
D51*
X38362Y375024D02*
D03*
X333638D02*
D03*
X38362Y252976D02*
D03*
X333638D02*
D03*
D52*
X161984Y251008D02*
D03*
X171984D02*
D03*
X181984D02*
D03*
X191984D02*
D03*
X201984D02*
D03*
X211984D02*
D03*
X221984D02*
D03*
X231984D02*
D03*
X241984D02*
D03*
X251984D02*
D03*
X261984D02*
D03*
X271984D02*
D03*
X281984D02*
D03*
X291984D02*
D03*
X301984D02*
D03*
D53*
X311984D02*
D03*
D54*
X131500Y73000D02*
D03*
D55*
Y103000D02*
D03*
X112000Y135500D02*
D03*
X82000D02*
D03*
X151500Y136500D02*
D03*
X141500D02*
D03*
D56*
X161500D02*
D03*
D57*
X250500Y149000D02*
D03*
D58*
X295000Y96000D02*
D03*
X227000Y195500D02*
D03*
X287500Y208000D02*
D03*
X280000Y220000D02*
D03*
X313000Y73000D02*
D03*
X259500Y54000D02*
D03*
M02*
