M48
;Layer_Color=9474304
;FILE_FORMAT=2:4
INCH,LZ
;TYPE=PLATED
T1F00S00C0.0276
T2F00S00C0.0280
T3F00S00C0.0315
T4F00S00C0.0320
T5F00S00C0.0335
T6F00S00C0.0354
T7F00S00C0.0394
T8F00S00C0.0433
T9F00S00C0.0984
T10F00S00C0.1339
;TYPE=NON_PLATED
T11F00S00C0.1339
%
T01
X01315Y0073
Y0103
X01415Y01365
X01515
X01615
X0112Y01355
X0082
T02
X02595Y0054
X0313Y0073
X0295Y0096
X02875Y0208
X0227Y01955
X028Y022
T03
X0273Y01075
Y01175
Y01395
Y01495
X0303
Y01395
X032Y0141
Y0151
X035
Y0141
Y01155
Y01055
X032
Y01155
X0303Y01175
Y01075
X0057Y0107
Y0097
Y0125
Y0135
X00575Y0154
Y0164
X0058Y01825
Y01925
T04
X02335Y02025
X02435
X02535
X02635
X02735
X02235
X02135
X02035
X01935
X01835
X01735
X01635
X01535
X01435
Y02325
X01535
X01635
X01735
X01835
X01935
X02035
X02135
X02235
X02335
X02435
X02535
X02635
X02735
T05
X01945Y00145
X02245
X02515
X02815
X0308Y0016
X03085Y0036
X03385
X0338Y0016
X028Y00875
X025
X02575Y0107
Y0126
X02275
Y0107
X02295Y018
X0244Y01805
X0274
X02875Y018
X03175
X01995
X01905
X01605
X01145Y01895
X00945
X00775Y019
Y016
X00945Y01595
X01145
X0092Y0109
X0078Y01095
Y00795
X0092Y0079
X0185Y0088
Y0108
Y01275
X01845Y01475
X02145
X0215Y01275
Y0108
Y0088
T06
X00435Y00315
Y00415
X0328Y0063
Y0073
X00435Y0075
Y0065
T07
X02Y00395
X021
X022
X0256Y0043
X0266
X0276
Y0069
X0266
X0256
X02195Y0065
X02095
X01995
X020198Y025101
X019198
X018198
X017198
X016198
X021198
X022198
X023198
X024198
X025198
X026198
X027198
X028198
X029198
X030198
X031198
T08
X00675Y0033
Y0053
X0087
Y0033
X02305Y0149
X02505
T09
X003836Y025298
X033364
Y037502
X003836
T10
X035433Y001969
T11
X011811Y001969
X005118Y021654
X033071
M30
