G04*
G04 #@! TF.GenerationSoftware,Altium Limited,Altium Designer,21.6.1 (37)*
G04*
G04 Layer_Physical_Order=2*
G04 Layer_Color=16711680*
%FSLAX25Y25*%
%MOIN*%
G70*
G04*
G04 #@! TF.SameCoordinates,3883BF2F-BC99-4846-9409-8211DB2FD588*
G04*
G04*
G04 #@! TF.FilePolarity,Positive*
G04*
G01*
G75*
%ADD36C,0.02500*%
%ADD37C,0.01500*%
%ADD38C,0.05512*%
%ADD39C,0.13386*%
%ADD40R,0.07284X0.07284*%
%ADD41C,0.07284*%
%ADD42R,0.05906X0.05906*%
%ADD43C,0.05906*%
%ADD44C,0.06299*%
%ADD45C,0.05200*%
%ADD46R,0.05200X0.05200*%
%ADD47R,0.06299X0.06299*%
%ADD48C,0.06299*%
%ADD49C,0.05150*%
%ADD50R,0.05150X0.05150*%
%ADD51C,0.19685*%
%ADD52C,0.05937*%
%ADD53R,0.05937X0.05937*%
%ADD54R,0.04724X0.04724*%
%ADD55C,0.04724*%
%ADD56R,0.04724X0.04724*%
%ADD57R,0.07284X0.07284*%
%ADD58C,0.05000*%
G36*
X347500Y257000D02*
X347000Y256500D01*
Y231000D01*
X337121Y221121D01*
X336624Y221170D01*
X336529Y221312D01*
X335485Y222356D01*
X334258Y223176D01*
X332894Y223740D01*
X331447Y224028D01*
X329971D01*
X328523Y223740D01*
X327159Y223176D01*
X325932Y222356D01*
X324888Y221312D01*
X324068Y220085D01*
X323504Y218721D01*
X323216Y217273D01*
Y215797D01*
X323504Y214350D01*
X324068Y212986D01*
X324888Y211759D01*
X325932Y210715D01*
X326074Y210621D01*
X326123Y210123D01*
X324000Y208000D01*
X290800D01*
Y208435D01*
X290575Y209274D01*
X290141Y210026D01*
X289526Y210641D01*
X288774Y211075D01*
X287934Y211300D01*
X287066D01*
X286226Y211075D01*
X285474Y210641D01*
X284859Y210026D01*
X284425Y209274D01*
X284200Y208435D01*
Y208000D01*
X282090D01*
Y217423D01*
X282641Y217974D01*
X283075Y218726D01*
X283300Y219566D01*
Y220344D01*
X303462Y240506D01*
X303462Y240506D01*
X303915Y241184D01*
X304074Y241984D01*
Y247863D01*
X304298Y247992D01*
X305000Y248694D01*
X305496Y249553D01*
X305753Y250512D01*
Y251504D01*
X305496Y252463D01*
X305000Y253322D01*
X304298Y254023D01*
X303439Y254520D01*
X302480Y254776D01*
X301488D01*
X300530Y254520D01*
X299670Y254023D01*
X298969Y253322D01*
X298473Y252463D01*
X298216Y251504D01*
Y250512D01*
X298473Y249553D01*
X298969Y248694D01*
X299670Y247992D01*
X299894Y247863D01*
Y242850D01*
X280344Y223300D01*
X279566D01*
X278726Y223075D01*
X277974Y222641D01*
X277359Y222026D01*
X276925Y221274D01*
X276700Y220434D01*
Y219566D01*
X276925Y218726D01*
X277359Y217974D01*
X277910Y217423D01*
Y208000D01*
X247500D01*
X245038Y205538D01*
X244812Y205668D01*
X243948Y205900D01*
X243052D01*
X242188Y205668D01*
X241412Y205221D01*
X240779Y204588D01*
X240332Y203812D01*
X240100Y202948D01*
Y202052D01*
X240332Y201188D01*
X240462Y200962D01*
X231580Y192080D01*
X228677D01*
X228543Y192580D01*
X229026Y192859D01*
X229641Y193474D01*
X230075Y194226D01*
X230300Y195066D01*
Y195934D01*
X230075Y196774D01*
X229641Y197526D01*
X229026Y198141D01*
X228274Y198575D01*
X227434Y198800D01*
X226566D01*
X225726Y198575D01*
X224974Y198141D01*
X224359Y197526D01*
X223925Y196774D01*
X223700Y195934D01*
Y195066D01*
X223833Y194568D01*
X217882Y188618D01*
X217540Y188105D01*
X217420Y187500D01*
Y152655D01*
X215641Y150876D01*
X214968Y151056D01*
X214032D01*
X213127Y150814D01*
X212317Y150345D01*
X211655Y149683D01*
X211186Y148872D01*
X210944Y147968D01*
Y147032D01*
X211124Y146359D01*
X207382Y142617D01*
X207040Y142105D01*
X206920Y141500D01*
Y128920D01*
X190500Y112500D01*
X92677D01*
X92468Y112556D01*
X91679D01*
X84618Y119617D01*
X84105Y119960D01*
X83500Y120080D01*
X64155D01*
X60697Y123538D01*
X60950Y124480D01*
Y125520D01*
X60680Y126524D01*
X60160Y127425D01*
X59425Y128161D01*
X58525Y128680D01*
X57520Y128950D01*
X56480D01*
X55475Y128680D01*
X54575Y128161D01*
X53839Y127425D01*
X53320Y126524D01*
X53050Y125520D01*
Y124480D01*
X53320Y123476D01*
X53839Y122575D01*
X54575Y121839D01*
X55475Y121320D01*
X56480Y121050D01*
X57520D01*
X58462Y121303D01*
X62383Y117383D01*
X62895Y117040D01*
X63500Y116920D01*
X82845D01*
X87078Y112687D01*
X87000Y112500D01*
X75000Y96500D01*
Y81416D01*
X74686Y80872D01*
X74444Y79968D01*
Y79032D01*
X74472Y78928D01*
X66022Y70478D01*
X65569Y69800D01*
X65410Y69000D01*
X65410Y69000D01*
Y56922D01*
X64773Y56554D01*
X63946Y55727D01*
X63361Y54714D01*
X63058Y53585D01*
Y52415D01*
X63361Y51286D01*
X63946Y50273D01*
X64773Y49446D01*
X65786Y48861D01*
X66915Y48558D01*
X68085D01*
X69214Y48861D01*
X70227Y49446D01*
X71054Y50273D01*
X71639Y51286D01*
X71942Y52415D01*
Y53585D01*
X71639Y54714D01*
X71054Y55727D01*
X70227Y56554D01*
X69590Y56922D01*
Y68134D01*
X74538Y73082D01*
X75000Y72891D01*
Y33500D01*
X72404Y30904D01*
X71942Y31095D01*
Y37442D01*
X63058D01*
Y34813D01*
X62558Y34677D01*
X56580Y40655D01*
Y53500D01*
X56460Y54105D01*
X56117Y54618D01*
X47036Y63699D01*
X47253Y64506D01*
Y65494D01*
X46997Y66448D01*
X46503Y67304D01*
X45804Y68003D01*
X44949Y68497D01*
X43994Y68753D01*
X43006D01*
X42052Y68497D01*
X41196Y68003D01*
X40497Y67304D01*
X40003Y66448D01*
X39747Y65494D01*
Y64506D01*
X40003Y63551D01*
X40497Y62696D01*
X41196Y61997D01*
X42052Y61503D01*
X43006Y61247D01*
X43994D01*
X44801Y61464D01*
X53420Y52845D01*
Y40000D01*
X53540Y39395D01*
X53882Y38882D01*
X60883Y31883D01*
X61395Y31540D01*
X62000Y31420D01*
X63058D01*
Y28558D01*
X69405D01*
X69596Y28096D01*
X66080Y24580D01*
X52655D01*
X47036Y30199D01*
X47253Y31006D01*
Y31994D01*
X46997Y32948D01*
X46503Y33804D01*
X45804Y34503D01*
X44949Y34997D01*
X43994Y35253D01*
X43006D01*
X42052Y34997D01*
X41196Y34503D01*
X40497Y33804D01*
X40003Y32948D01*
X39747Y31994D01*
Y31006D01*
X40003Y30051D01*
X40497Y29196D01*
X41196Y28497D01*
X42052Y28003D01*
X43006Y27747D01*
X43994D01*
X44801Y27964D01*
X48303Y24462D01*
X48112Y24000D01*
X32000D01*
X21000Y33500D01*
Y213000D01*
X82500Y274500D01*
X330000D01*
X347500Y257000D01*
D02*
G37*
%LPC*%
G36*
X272984Y254848D02*
Y252008D01*
X275825D01*
X275682Y252540D01*
X275160Y253445D01*
X274421Y254184D01*
X273516Y254706D01*
X272984Y254848D01*
D02*
G37*
G36*
X252984D02*
Y252008D01*
X255825D01*
X255682Y252540D01*
X255160Y253445D01*
X254421Y254184D01*
X253516Y254706D01*
X252984Y254848D01*
D02*
G37*
G36*
X242984D02*
Y252008D01*
X245825D01*
X245682Y252540D01*
X245160Y253445D01*
X244421Y254184D01*
X243516Y254706D01*
X242984Y254848D01*
D02*
G37*
G36*
X162984D02*
Y252008D01*
X165825D01*
X165682Y252540D01*
X165160Y253445D01*
X164421Y254184D01*
X163516Y254706D01*
X162984Y254848D01*
D02*
G37*
G36*
X315953Y254976D02*
X312984D01*
Y252008D01*
X315953D01*
Y254976D01*
D02*
G37*
G36*
X232984Y254848D02*
Y252008D01*
X235825D01*
X235682Y252540D01*
X235160Y253445D01*
X234421Y254184D01*
X233516Y254706D01*
X232984Y254848D01*
D02*
G37*
G36*
X222984D02*
Y252008D01*
X225825D01*
X225682Y252540D01*
X225160Y253445D01*
X224421Y254184D01*
X223516Y254706D01*
X222984Y254848D01*
D02*
G37*
G36*
X270984Y254848D02*
X270452Y254706D01*
X269548Y254184D01*
X268809Y253445D01*
X268286Y252540D01*
X268144Y252008D01*
X270984D01*
Y254848D01*
D02*
G37*
G36*
X250984D02*
X250452Y254706D01*
X249548Y254184D01*
X248809Y253445D01*
X248286Y252540D01*
X248144Y252008D01*
X250984D01*
Y254848D01*
D02*
G37*
G36*
X240984D02*
X240453Y254706D01*
X239547Y254184D01*
X238809Y253445D01*
X238286Y252540D01*
X238144Y252008D01*
X240984D01*
Y254848D01*
D02*
G37*
G36*
X160984D02*
X160452Y254706D01*
X159547Y254184D01*
X158809Y253445D01*
X158286Y252540D01*
X158144Y252008D01*
X160984D01*
Y254848D01*
D02*
G37*
G36*
X230984D02*
X230452Y254706D01*
X229548Y254184D01*
X228809Y253445D01*
X228286Y252540D01*
X228144Y252008D01*
X230984D01*
Y254848D01*
D02*
G37*
G36*
X220984D02*
X220452Y254706D01*
X219548Y254184D01*
X218809Y253445D01*
X218286Y252540D01*
X218144Y252008D01*
X220984D01*
Y254848D01*
D02*
G37*
G36*
X310984Y254976D02*
X308016D01*
Y252008D01*
X310984D01*
Y254976D01*
D02*
G37*
G36*
X292480Y254776D02*
X291488D01*
X290530Y254520D01*
X289670Y254023D01*
X288969Y253322D01*
X288473Y252463D01*
X288216Y251504D01*
Y250512D01*
X288473Y249553D01*
X288969Y248694D01*
X289670Y247992D01*
X290530Y247496D01*
X291488Y247239D01*
X292480D01*
X293439Y247496D01*
X294298Y247992D01*
X295000Y248694D01*
X295496Y249553D01*
X295753Y250512D01*
Y251504D01*
X295496Y252463D01*
X295000Y253322D01*
X294298Y254023D01*
X293439Y254520D01*
X292480Y254776D01*
D02*
G37*
G36*
X282480D02*
X281488D01*
X280530Y254520D01*
X279670Y254023D01*
X278969Y253322D01*
X278473Y252463D01*
X278216Y251504D01*
Y250512D01*
X278435Y249694D01*
X272382Y243641D01*
X272040Y243128D01*
X271920Y242524D01*
Y235514D01*
X271412Y235221D01*
X270779Y234588D01*
X270332Y233812D01*
X270100Y232948D01*
Y232052D01*
X270332Y231188D01*
X270779Y230412D01*
X271412Y229779D01*
X272188Y229332D01*
X273052Y229100D01*
X273948D01*
X274812Y229332D01*
X275588Y229779D01*
X276221Y230412D01*
X276668Y231188D01*
X276900Y232052D01*
Y232948D01*
X276668Y233812D01*
X276221Y234588D01*
X275588Y235221D01*
X275080Y235514D01*
Y241869D01*
X280670Y247459D01*
X281488Y247239D01*
X282480D01*
X283439Y247496D01*
X284298Y247992D01*
X285000Y248694D01*
X285496Y249553D01*
X285753Y250512D01*
Y251504D01*
X285496Y252463D01*
X285000Y253322D01*
X284298Y254023D01*
X283439Y254520D01*
X282480Y254776D01*
D02*
G37*
G36*
X172480D02*
X171488D01*
X170530Y254520D01*
X169670Y254023D01*
X168969Y253322D01*
X168473Y252463D01*
X168216Y251504D01*
Y250512D01*
X168473Y249553D01*
X168969Y248694D01*
X169670Y247992D01*
X170530Y247496D01*
X171488Y247239D01*
X172480D01*
X173439Y247496D01*
X174298Y247992D01*
X175000Y248694D01*
X175496Y249553D01*
X175753Y250512D01*
Y251504D01*
X175496Y252463D01*
X175000Y253322D01*
X174298Y254023D01*
X173439Y254520D01*
X172480Y254776D01*
D02*
G37*
G36*
X270984Y250008D02*
X268144D01*
X268286Y249476D01*
X268809Y248571D01*
X269548Y247832D01*
X270452Y247310D01*
X270984Y247167D01*
Y250008D01*
D02*
G37*
G36*
X250984D02*
X248144D01*
X248286Y249476D01*
X248809Y248571D01*
X249548Y247832D01*
X250452Y247310D01*
X250984Y247167D01*
Y250008D01*
D02*
G37*
G36*
X240984D02*
X238144D01*
X238286Y249476D01*
X238809Y248571D01*
X239547Y247832D01*
X240453Y247310D01*
X240984Y247167D01*
Y250008D01*
D02*
G37*
G36*
X230984D02*
X228144D01*
X228286Y249476D01*
X228809Y248571D01*
X229548Y247832D01*
X230452Y247310D01*
X230984Y247167D01*
Y250008D01*
D02*
G37*
G36*
X220984D02*
X218144D01*
X218286Y249476D01*
X218809Y248571D01*
X219548Y247832D01*
X220452Y247310D01*
X220984Y247167D01*
Y250008D01*
D02*
G37*
G36*
X160984D02*
X158144D01*
X158286Y249476D01*
X158809Y248571D01*
X159547Y247832D01*
X160452Y247310D01*
X160984Y247167D01*
Y250008D01*
D02*
G37*
G36*
X275825D02*
X272984D01*
Y247167D01*
X273516Y247310D01*
X274421Y247832D01*
X275160Y248571D01*
X275682Y249476D01*
X275825Y250008D01*
D02*
G37*
G36*
X255825D02*
X252984D01*
Y247167D01*
X253516Y247310D01*
X254421Y247832D01*
X255160Y248571D01*
X255682Y249476D01*
X255825Y250008D01*
D02*
G37*
G36*
X245825D02*
X242984D01*
Y247167D01*
X243516Y247310D01*
X244421Y247832D01*
X245160Y248571D01*
X245682Y249476D01*
X245825Y250008D01*
D02*
G37*
G36*
X235825D02*
X232984D01*
Y247167D01*
X233516Y247310D01*
X234421Y247832D01*
X235160Y248571D01*
X235682Y249476D01*
X235825Y250008D01*
D02*
G37*
G36*
X225825D02*
X222984D01*
Y247167D01*
X223516Y247310D01*
X224421Y247832D01*
X225160Y248571D01*
X225682Y249476D01*
X225825Y250008D01*
D02*
G37*
G36*
X165825D02*
X162984D01*
Y247167D01*
X163516Y247310D01*
X164421Y247832D01*
X165160Y248571D01*
X165682Y249476D01*
X165825Y250008D01*
D02*
G37*
G36*
X315953D02*
X312984D01*
Y247039D01*
X315953D01*
Y250008D01*
D02*
G37*
G36*
X310984D02*
X308016D01*
Y247039D01*
X310984D01*
Y250008D01*
D02*
G37*
G36*
X334475Y263619D02*
X332800D01*
X331146Y263357D01*
X329553Y262839D01*
X328060Y262079D01*
X326705Y261094D01*
X325520Y259910D01*
X324535Y258554D01*
X323775Y257062D01*
X323257Y255469D01*
X322995Y253814D01*
Y252139D01*
X323257Y250484D01*
X323775Y248891D01*
X324535Y247398D01*
X325520Y246043D01*
X326705Y244859D01*
X328060Y243874D01*
X329553Y243114D01*
X331146Y242596D01*
X332800Y242334D01*
X334475D01*
X336130Y242596D01*
X337723Y243114D01*
X339216Y243874D01*
X340571Y244859D01*
X341756Y246043D01*
X342740Y247398D01*
X343501Y248891D01*
X344018Y250484D01*
X344280Y252139D01*
Y253814D01*
X344018Y255469D01*
X343501Y257062D01*
X342740Y258554D01*
X341756Y259910D01*
X340571Y261094D01*
X339216Y262079D01*
X337723Y262839D01*
X336130Y263357D01*
X334475Y263619D01*
D02*
G37*
G36*
X192480Y254776D02*
X191488D01*
X190530Y254520D01*
X189670Y254023D01*
X188969Y253322D01*
X188473Y252463D01*
X188216Y251504D01*
Y250512D01*
X188473Y249553D01*
X188969Y248694D01*
X189670Y247992D01*
X190420Y247560D01*
Y245655D01*
X186345Y241580D01*
X180969D01*
X180777Y242042D01*
X183102Y244367D01*
X183444Y244880D01*
X183565Y245484D01*
Y247569D01*
X184298Y247992D01*
X185000Y248694D01*
X185496Y249553D01*
X185753Y250512D01*
Y251504D01*
X185496Y252463D01*
X185000Y253322D01*
X184298Y254023D01*
X183439Y254520D01*
X182480Y254776D01*
X181488D01*
X180530Y254520D01*
X179670Y254023D01*
X178969Y253322D01*
X178473Y252463D01*
X178216Y251504D01*
Y250512D01*
X178473Y249553D01*
X178969Y248694D01*
X179670Y247992D01*
X180404Y247569D01*
Y246139D01*
X178345Y244080D01*
X148500D01*
X147895Y243960D01*
X147382Y243618D01*
X142383Y238617D01*
X142040Y238105D01*
X141920Y237500D01*
Y235514D01*
X141412Y235221D01*
X140779Y234588D01*
X140332Y233812D01*
X140100Y232948D01*
Y232052D01*
X140332Y231188D01*
X140779Y230412D01*
X141412Y229779D01*
X142188Y229332D01*
X143052Y229100D01*
X143948D01*
X144812Y229332D01*
X145588Y229779D01*
X146221Y230412D01*
X146668Y231188D01*
X146900Y232052D01*
Y232948D01*
X146668Y233812D01*
X146221Y234588D01*
X145588Y235221D01*
X145080Y235514D01*
Y236845D01*
X149155Y240920D01*
X153531D01*
X153723Y240458D01*
X152383Y239118D01*
X152040Y238605D01*
X151920Y238000D01*
Y235514D01*
X151412Y235221D01*
X150779Y234588D01*
X150332Y233812D01*
X150100Y232948D01*
Y232052D01*
X150332Y231188D01*
X150779Y230412D01*
X151412Y229779D01*
X152188Y229332D01*
X153052Y229100D01*
X153948D01*
X154812Y229332D01*
X155588Y229779D01*
X156221Y230412D01*
X156668Y231188D01*
X156900Y232052D01*
Y232948D01*
X156668Y233812D01*
X156221Y234588D01*
X155588Y235221D01*
X155080Y235514D01*
Y237345D01*
X156155Y238420D01*
X187000D01*
X187605Y238540D01*
X188118Y238882D01*
X193117Y243882D01*
X193460Y244395D01*
X193580Y245000D01*
Y247578D01*
X194298Y247992D01*
X195000Y248694D01*
X195496Y249553D01*
X195753Y250512D01*
Y251504D01*
X195496Y252463D01*
X195000Y253322D01*
X194298Y254023D01*
X193439Y254520D01*
X192480Y254776D01*
D02*
G37*
G36*
X212480D02*
X211488D01*
X210530Y254520D01*
X209670Y254023D01*
X208969Y253322D01*
X208473Y252463D01*
X208216Y251504D01*
Y250512D01*
X208473Y249553D01*
X208969Y248694D01*
X209670Y247992D01*
X210530Y247496D01*
X211130Y247335D01*
Y245789D01*
X211251Y245185D01*
X211593Y244672D01*
X214685Y241580D01*
X214477Y241080D01*
X209655D01*
X204291Y246444D01*
Y247988D01*
X204298Y247992D01*
X205000Y248694D01*
X205496Y249553D01*
X205753Y250512D01*
Y251504D01*
X205496Y252463D01*
X205000Y253322D01*
X204298Y254023D01*
X203439Y254520D01*
X202480Y254776D01*
X201488D01*
X200530Y254520D01*
X199670Y254023D01*
X198969Y253322D01*
X198473Y252463D01*
X198216Y251504D01*
Y250512D01*
X198473Y249553D01*
X198969Y248694D01*
X199670Y247992D01*
X200530Y247496D01*
X201130Y247335D01*
Y245789D01*
X201251Y245185D01*
X201593Y244672D01*
X207882Y238383D01*
X208395Y238040D01*
X209000Y237920D01*
X239845D01*
X241801Y235964D01*
X241750Y235416D01*
X241412Y235221D01*
X240779Y234588D01*
X240332Y233812D01*
X240100Y232948D01*
Y232052D01*
X240332Y231188D01*
X240779Y230412D01*
X241412Y229779D01*
X242188Y229332D01*
X243052Y229100D01*
X243948D01*
X244812Y229332D01*
X245588Y229779D01*
X246221Y230412D01*
X246668Y231188D01*
X246900Y232052D01*
Y232948D01*
X246668Y233812D01*
X246221Y234588D01*
X245588Y235221D01*
X245080Y235514D01*
Y236500D01*
X244960Y237105D01*
X244618Y237617D01*
X241815Y240420D01*
X242022Y240920D01*
X247345D01*
X251920Y236345D01*
Y235514D01*
X251412Y235221D01*
X250779Y234588D01*
X250332Y233812D01*
X250100Y232948D01*
Y232052D01*
X250332Y231188D01*
X250779Y230412D01*
X251412Y229779D01*
X252188Y229332D01*
X253052Y229100D01*
X253948D01*
X254812Y229332D01*
X255588Y229779D01*
X256221Y230412D01*
X256668Y231188D01*
X256900Y232052D01*
Y232948D01*
X256668Y233812D01*
X256221Y234588D01*
X255588Y235221D01*
X255080Y235514D01*
Y237000D01*
X254960Y237605D01*
X254618Y238118D01*
X249117Y243618D01*
X248605Y243960D01*
X248000Y244080D01*
X216655D01*
X214291Y246444D01*
Y247988D01*
X214298Y247992D01*
X215000Y248694D01*
X215496Y249553D01*
X215753Y250512D01*
Y251504D01*
X215496Y252463D01*
X215000Y253322D01*
X214298Y254023D01*
X213439Y254520D01*
X212480Y254776D01*
D02*
G37*
G36*
X234500Y235959D02*
Y233500D01*
X236959D01*
X236855Y233890D01*
X236381Y234710D01*
X235710Y235381D01*
X234890Y235855D01*
X234500Y235959D01*
D02*
G37*
G36*
X232500D02*
X232110Y235855D01*
X231290Y235381D01*
X230619Y234710D01*
X230145Y233890D01*
X230041Y233500D01*
X232500D01*
Y235959D01*
D02*
G37*
G36*
X262480Y254776D02*
X261488D01*
X260530Y254520D01*
X259670Y254023D01*
X258969Y253322D01*
X258473Y252463D01*
X258216Y251504D01*
Y250512D01*
X258473Y249553D01*
X258969Y248694D01*
X259670Y247992D01*
X260530Y247496D01*
X261488Y247239D01*
X261920D01*
Y235514D01*
X261412Y235221D01*
X260779Y234588D01*
X260332Y233812D01*
X260100Y232948D01*
Y232052D01*
X260332Y231188D01*
X260779Y230412D01*
X261412Y229779D01*
X262188Y229332D01*
X263052Y229100D01*
X263948D01*
X264812Y229332D01*
X265588Y229779D01*
X266221Y230412D01*
X266668Y231188D01*
X266900Y232052D01*
Y232948D01*
X266668Y233812D01*
X266221Y234588D01*
X265588Y235221D01*
X265080Y235514D01*
Y248291D01*
X265000Y248695D01*
X265496Y249553D01*
X265753Y250512D01*
Y251504D01*
X265496Y252463D01*
X265000Y253322D01*
X264298Y254023D01*
X263439Y254520D01*
X262480Y254776D01*
D02*
G37*
G36*
X223948Y235900D02*
X223052D01*
X222188Y235668D01*
X221412Y235221D01*
X220779Y234588D01*
X220332Y233812D01*
X220100Y232948D01*
Y232052D01*
X220332Y231188D01*
X220779Y230412D01*
X221412Y229779D01*
X222188Y229332D01*
X223052Y229100D01*
X223948D01*
X224812Y229332D01*
X225588Y229779D01*
X226221Y230412D01*
X226668Y231188D01*
X226900Y232052D01*
Y232948D01*
X226668Y233812D01*
X226221Y234588D01*
X225588Y235221D01*
X224812Y235668D01*
X223948Y235900D01*
D02*
G37*
G36*
X193948D02*
X193052D01*
X192188Y235668D01*
X191412Y235221D01*
X190779Y234588D01*
X190332Y233812D01*
X190100Y232948D01*
Y232052D01*
X190332Y231188D01*
X190779Y230412D01*
X191412Y229779D01*
X192188Y229332D01*
X193052Y229100D01*
X193948D01*
X194812Y229332D01*
X195588Y229779D01*
X196221Y230412D01*
X196668Y231188D01*
X196900Y232052D01*
Y232948D01*
X196668Y233812D01*
X196221Y234588D01*
X195588Y235221D01*
X194812Y235668D01*
X193948Y235900D01*
D02*
G37*
G36*
X183948D02*
X183052D01*
X182188Y235668D01*
X181412Y235221D01*
X180779Y234588D01*
X180332Y233812D01*
X180100Y232948D01*
Y232052D01*
X180332Y231188D01*
X180779Y230412D01*
X181412Y229779D01*
X182188Y229332D01*
X183052Y229100D01*
X183948D01*
X184812Y229332D01*
X185588Y229779D01*
X186221Y230412D01*
X186668Y231188D01*
X186900Y232052D01*
Y232948D01*
X186668Y233812D01*
X186221Y234588D01*
X185588Y235221D01*
X184812Y235668D01*
X183948Y235900D01*
D02*
G37*
G36*
X173948D02*
X173052D01*
X172188Y235668D01*
X171412Y235221D01*
X170779Y234588D01*
X170332Y233812D01*
X170100Y232948D01*
Y232052D01*
X170332Y231188D01*
X170779Y230412D01*
X171412Y229779D01*
X172188Y229332D01*
X173052Y229100D01*
X173948D01*
X174812Y229332D01*
X175588Y229779D01*
X176221Y230412D01*
X176668Y231188D01*
X176900Y232052D01*
Y232948D01*
X176668Y233812D01*
X176221Y234588D01*
X175588Y235221D01*
X174812Y235668D01*
X173948Y235900D01*
D02*
G37*
G36*
X163948D02*
X163052D01*
X162188Y235668D01*
X161412Y235221D01*
X160779Y234588D01*
X160332Y233812D01*
X160100Y232948D01*
Y232052D01*
X160332Y231188D01*
X160779Y230412D01*
X161412Y229779D01*
X162188Y229332D01*
X163052Y229100D01*
X163948D01*
X164812Y229332D01*
X165588Y229779D01*
X166221Y230412D01*
X166668Y231188D01*
X166900Y232052D01*
Y232948D01*
X166668Y233812D01*
X166221Y234588D01*
X165588Y235221D01*
X164812Y235668D01*
X163948Y235900D01*
D02*
G37*
G36*
X236959Y231500D02*
X234500D01*
Y229041D01*
X234890Y229145D01*
X235710Y229619D01*
X236381Y230290D01*
X236855Y231110D01*
X236959Y231500D01*
D02*
G37*
G36*
X232500D02*
X230041D01*
X230145Y231110D01*
X230619Y230290D01*
X231290Y229619D01*
X232110Y229145D01*
X232500Y229041D01*
Y231500D01*
D02*
G37*
G36*
X213948Y235900D02*
X213052D01*
X212188Y235668D01*
X211412Y235221D01*
X210779Y234588D01*
X210332Y233812D01*
X210100Y232948D01*
Y232052D01*
X210332Y231188D01*
X210779Y230412D01*
X211412Y229779D01*
X211920Y229486D01*
Y227655D01*
X208845Y224580D01*
X201969D01*
X201777Y225042D01*
X204438Y227703D01*
X204781Y228216D01*
X204901Y228820D01*
Y229383D01*
X205588Y229779D01*
X206221Y230412D01*
X206668Y231188D01*
X206900Y232052D01*
Y232948D01*
X206668Y233812D01*
X206221Y234588D01*
X205588Y235221D01*
X204812Y235668D01*
X203948Y235900D01*
X203052D01*
X202188Y235668D01*
X201412Y235221D01*
X200779Y234588D01*
X200332Y233812D01*
X200100Y232948D01*
Y232052D01*
X200332Y231188D01*
X200779Y230412D01*
X201412Y229779D01*
X201447Y229182D01*
X199345Y227080D01*
X107500D01*
X106895Y226960D01*
X106383Y226618D01*
X76382Y196617D01*
X76040Y196105D01*
X75920Y195500D01*
Y193194D01*
X75317Y192845D01*
X74655Y192183D01*
X74186Y191373D01*
X73944Y190468D01*
Y189532D01*
X74186Y188628D01*
X74655Y187817D01*
X75317Y187155D01*
X76127Y186686D01*
X77032Y186444D01*
X77968D01*
X78873Y186686D01*
X79683Y187155D01*
X80345Y187817D01*
X80814Y188628D01*
X81056Y189532D01*
Y190468D01*
X80814Y191373D01*
X80345Y192183D01*
X79683Y192845D01*
X79080Y193194D01*
Y194845D01*
X92453Y208218D01*
X92869Y208024D01*
X92920Y207978D01*
Y192694D01*
X92317Y192345D01*
X91655Y191683D01*
X91186Y190873D01*
X90944Y189968D01*
Y189032D01*
X91186Y188128D01*
X91655Y187317D01*
X92317Y186655D01*
X93128Y186186D01*
X94032Y185944D01*
X94968D01*
X95872Y186186D01*
X96683Y186655D01*
X97345Y187317D01*
X97814Y188128D01*
X98056Y189032D01*
Y189968D01*
X97814Y190873D01*
X97345Y191683D01*
X96683Y192345D01*
X96080Y192694D01*
Y207345D01*
X110155Y221420D01*
X209500D01*
X210105Y221540D01*
X210617Y221883D01*
X214617Y225883D01*
X214960Y226395D01*
X215080Y227000D01*
Y229486D01*
X215588Y229779D01*
X216221Y230412D01*
X216668Y231188D01*
X216900Y232052D01*
Y232948D01*
X216668Y233812D01*
X216221Y234588D01*
X215588Y235221D01*
X214812Y235668D01*
X213948Y235900D01*
D02*
G37*
G36*
X51919Y224028D02*
X50443D01*
X48996Y223740D01*
X47632Y223176D01*
X46405Y222356D01*
X45361Y221312D01*
X44541Y220085D01*
X43976Y218721D01*
X43688Y217273D01*
Y215797D01*
X43976Y214350D01*
X44541Y212986D01*
X45361Y211759D01*
X46405Y210715D01*
X47632Y209895D01*
X48996Y209331D01*
X50443Y209043D01*
X51919D01*
X53367Y209331D01*
X54730Y209895D01*
X55958Y210715D01*
X57001Y211759D01*
X57821Y212986D01*
X58386Y214350D01*
X58674Y215797D01*
Y217273D01*
X58386Y218721D01*
X57821Y220085D01*
X57001Y221312D01*
X55958Y222356D01*
X54730Y223176D01*
X53367Y223740D01*
X51919Y224028D01*
D02*
G37*
G36*
X214500Y205959D02*
Y203500D01*
X216959D01*
X216855Y203890D01*
X216381Y204710D01*
X215710Y205381D01*
X214890Y205855D01*
X214500Y205959D01*
D02*
G37*
G36*
X212500D02*
X212110Y205855D01*
X211290Y205381D01*
X210619Y204710D01*
X210145Y203890D01*
X210041Y203500D01*
X212500D01*
Y205959D01*
D02*
G37*
G36*
X233948Y205900D02*
X233052D01*
X232188Y205668D01*
X231412Y205221D01*
X230779Y204588D01*
X230332Y203812D01*
X230100Y202948D01*
Y202052D01*
X230332Y201188D01*
X230779Y200412D01*
X231412Y199779D01*
X232188Y199332D01*
X233052Y199100D01*
X233948D01*
X234812Y199332D01*
X235588Y199779D01*
X236221Y200412D01*
X236668Y201188D01*
X236900Y202052D01*
Y202948D01*
X236668Y203812D01*
X236221Y204588D01*
X235588Y205221D01*
X234812Y205668D01*
X233948Y205900D01*
D02*
G37*
G36*
X223948D02*
X223052D01*
X222188Y205668D01*
X221412Y205221D01*
X220779Y204588D01*
X220332Y203812D01*
X220100Y202948D01*
Y202052D01*
X220332Y201188D01*
X220779Y200412D01*
X221412Y199779D01*
X222188Y199332D01*
X223052Y199100D01*
X223948D01*
X224812Y199332D01*
X225588Y199779D01*
X226221Y200412D01*
X226668Y201188D01*
X226900Y202052D01*
Y202948D01*
X226668Y203812D01*
X226221Y204588D01*
X225588Y205221D01*
X224812Y205668D01*
X223948Y205900D01*
D02*
G37*
G36*
X203948D02*
X203052D01*
X202188Y205668D01*
X201412Y205221D01*
X200779Y204588D01*
X200332Y203812D01*
X200100Y202948D01*
Y202052D01*
X200332Y201188D01*
X200779Y200412D01*
X201412Y199779D01*
X202188Y199332D01*
X203052Y199100D01*
X203948D01*
X204812Y199332D01*
X205588Y199779D01*
X206221Y200412D01*
X206668Y201188D01*
X206900Y202052D01*
Y202948D01*
X206668Y203812D01*
X206221Y204588D01*
X205588Y205221D01*
X204812Y205668D01*
X203948Y205900D01*
D02*
G37*
G36*
X193948D02*
X193052D01*
X192188Y205668D01*
X191412Y205221D01*
X190779Y204588D01*
X190332Y203812D01*
X190100Y202948D01*
Y202052D01*
X190332Y201188D01*
X190779Y200412D01*
X191412Y199779D01*
X192188Y199332D01*
X193052Y199100D01*
X193948D01*
X194812Y199332D01*
X195588Y199779D01*
X196221Y200412D01*
X196668Y201188D01*
X196900Y202052D01*
Y202948D01*
X196668Y203812D01*
X196221Y204588D01*
X195588Y205221D01*
X194812Y205668D01*
X193948Y205900D01*
D02*
G37*
G36*
X183948D02*
X183052D01*
X182188Y205668D01*
X181412Y205221D01*
X180779Y204588D01*
X180332Y203812D01*
X180100Y202948D01*
Y202052D01*
X180332Y201188D01*
X180779Y200412D01*
X181412Y199779D01*
X182188Y199332D01*
X183052Y199100D01*
X183948D01*
X184812Y199332D01*
X185588Y199779D01*
X186221Y200412D01*
X186668Y201188D01*
X186900Y202052D01*
Y202948D01*
X186668Y203812D01*
X186221Y204588D01*
X185588Y205221D01*
X184812Y205668D01*
X183948Y205900D01*
D02*
G37*
G36*
X146900D02*
X140100D01*
Y199100D01*
X146900D01*
Y205900D01*
D02*
G37*
G36*
X216959Y201500D02*
X214500D01*
Y199041D01*
X214890Y199145D01*
X215710Y199619D01*
X216381Y200290D01*
X216855Y201110D01*
X216959Y201500D01*
D02*
G37*
G36*
X212500D02*
X210041D01*
X210145Y201110D01*
X210619Y200290D01*
X211290Y199619D01*
X212110Y199145D01*
X212500Y199041D01*
Y201500D01*
D02*
G37*
G36*
X59000Y196528D02*
Y193500D01*
X62028D01*
X61867Y194102D01*
X61321Y195048D01*
X60548Y195820D01*
X59602Y196367D01*
X59000Y196528D01*
D02*
G37*
G36*
X57000D02*
X56398Y196367D01*
X55452Y195820D01*
X54680Y195048D01*
X54133Y194102D01*
X53972Y193500D01*
X57000D01*
Y196528D01*
D02*
G37*
G36*
X62028Y191500D02*
X59000D01*
Y188472D01*
X59602Y188633D01*
X60548Y189180D01*
X61321Y189952D01*
X61867Y190898D01*
X62028Y191500D01*
D02*
G37*
G36*
X57000D02*
X53972D01*
X54133Y190898D01*
X54680Y189952D01*
X55452Y189180D01*
X56398Y188633D01*
X57000Y188472D01*
Y191500D01*
D02*
G37*
G36*
X114968Y193056D02*
X114032D01*
X113128Y192814D01*
X112317Y192345D01*
X111655Y191683D01*
X111186Y190873D01*
X110944Y189968D01*
Y189032D01*
X111186Y188128D01*
X111655Y187317D01*
X112317Y186655D01*
X113128Y186186D01*
X114032Y185944D01*
X114968D01*
X115873Y186186D01*
X116683Y186655D01*
X117345Y187317D01*
X117814Y188128D01*
X118056Y189032D01*
Y189968D01*
X117814Y190873D01*
X117345Y191683D01*
X116683Y192345D01*
X115873Y192814D01*
X114968Y193056D01*
D02*
G37*
G36*
X173948Y205900D02*
X173052D01*
X172188Y205668D01*
X171412Y205221D01*
X170779Y204588D01*
X170332Y203812D01*
X170100Y202948D01*
Y202052D01*
X170332Y201188D01*
X170779Y200412D01*
X171412Y199779D01*
X172188Y199332D01*
X173052Y199100D01*
X173948D01*
X174513Y199252D01*
X179883Y193883D01*
X180395Y193540D01*
X181000Y193420D01*
X192845D01*
X197920Y188345D01*
Y183194D01*
X197317Y182845D01*
X196655Y182183D01*
X196186Y181372D01*
X195944Y180468D01*
Y179532D01*
X196186Y178628D01*
X196655Y177817D01*
X197317Y177155D01*
X198127Y176686D01*
X199032Y176444D01*
X199968D01*
X200872Y176686D01*
X201683Y177155D01*
X202345Y177817D01*
X202814Y178628D01*
X203056Y179532D01*
Y180468D01*
X202814Y181372D01*
X202345Y182183D01*
X201683Y182845D01*
X201080Y183194D01*
Y189000D01*
X200960Y189605D01*
X200618Y190118D01*
X194617Y196117D01*
X194105Y196460D01*
X193500Y196580D01*
X181655D01*
X176748Y201487D01*
X176900Y202052D01*
Y202948D01*
X176668Y203812D01*
X176221Y204588D01*
X175588Y205221D01*
X174812Y205668D01*
X173948Y205900D01*
D02*
G37*
G36*
X190968Y183556D02*
X190032D01*
X189128Y183314D01*
X188317Y182845D01*
X187655Y182183D01*
X187186Y181372D01*
X186944Y180468D01*
Y179532D01*
X187186Y178628D01*
X187655Y177817D01*
X188317Y177155D01*
X189128Y176686D01*
X190032Y176444D01*
X190968D01*
X191873Y176686D01*
X192683Y177155D01*
X193345Y177817D01*
X193814Y178628D01*
X194056Y179532D01*
Y180468D01*
X193814Y181372D01*
X193345Y182183D01*
X192683Y182845D01*
X191873Y183314D01*
X190968Y183556D01*
D02*
G37*
G36*
X163948Y205900D02*
X163052D01*
X162188Y205668D01*
X161412Y205221D01*
X160779Y204588D01*
X160332Y203812D01*
X160100Y202948D01*
Y202052D01*
X160332Y201188D01*
X160779Y200412D01*
X161412Y199779D01*
X161920Y199486D01*
Y184734D01*
X160741Y183556D01*
X160032D01*
X159127Y183314D01*
X158317Y182845D01*
X157655Y182183D01*
X157186Y181372D01*
X156944Y180468D01*
Y179532D01*
X157186Y178628D01*
X157655Y177817D01*
X158317Y177155D01*
X159127Y176686D01*
X160032Y176444D01*
X160968D01*
X161872Y176686D01*
X162683Y177155D01*
X163345Y177817D01*
X163814Y178628D01*
X164056Y179532D01*
Y180468D01*
X163814Y181372D01*
X163526Y181870D01*
X164618Y182962D01*
X164960Y183475D01*
X165080Y184079D01*
Y199486D01*
X165588Y199779D01*
X166221Y200412D01*
X166668Y201188D01*
X166900Y202052D01*
Y202948D01*
X166668Y203812D01*
X166221Y204588D01*
X165588Y205221D01*
X164812Y205668D01*
X163948Y205900D01*
D02*
G37*
G36*
X58500Y168028D02*
Y165000D01*
X61528D01*
X61367Y165602D01*
X60821Y166548D01*
X60048Y167321D01*
X59102Y167867D01*
X58500Y168028D01*
D02*
G37*
G36*
X56500D02*
X55898Y167867D01*
X54952Y167321D01*
X54180Y166548D01*
X53633Y165602D01*
X53472Y165000D01*
X56500D01*
Y168028D01*
D02*
G37*
G36*
X61528Y163000D02*
X58500D01*
Y159972D01*
X59102Y160133D01*
X60048Y160679D01*
X60821Y161452D01*
X61367Y162398D01*
X61528Y163000D01*
D02*
G37*
G36*
X56500D02*
X53472D01*
X53633Y162398D01*
X54180Y161452D01*
X54952Y160679D01*
X55898Y160133D01*
X56500Y159972D01*
Y163000D01*
D02*
G37*
G36*
X58520Y186450D02*
X57480D01*
X56476Y186180D01*
X55575Y185661D01*
X54839Y184925D01*
X54320Y184025D01*
X54050Y183020D01*
Y181980D01*
X54320Y180975D01*
X54839Y180075D01*
X55575Y179340D01*
X56476Y178820D01*
X57480Y178550D01*
X58520D01*
X59462Y178803D01*
X68883Y169383D01*
X69395Y169040D01*
X70000Y168920D01*
X82845D01*
X91124Y160641D01*
X90944Y159968D01*
Y159032D01*
X91186Y158127D01*
X91655Y157317D01*
X92317Y156655D01*
X93128Y156186D01*
X94032Y155944D01*
X94968D01*
X95872Y156186D01*
X96683Y156655D01*
X97345Y157317D01*
X97814Y158127D01*
X98056Y159032D01*
Y159968D01*
X97814Y160872D01*
X97345Y161683D01*
X96683Y162345D01*
X95872Y162814D01*
X94968Y163056D01*
X94032D01*
X93359Y162876D01*
X84618Y171617D01*
X84105Y171960D01*
X83500Y172080D01*
X70655D01*
X61697Y181038D01*
X61950Y181980D01*
Y183020D01*
X61680Y184025D01*
X61160Y184925D01*
X60425Y185661D01*
X59525Y186180D01*
X58520Y186450D01*
D02*
G37*
G36*
X77968Y163556D02*
X77032D01*
X76127Y163314D01*
X75317Y162845D01*
X74655Y162183D01*
X74186Y161372D01*
X73944Y160468D01*
Y159532D01*
X74124Y158859D01*
X70845Y155580D01*
X61148D01*
X60660Y156425D01*
X59925Y157160D01*
X59025Y157680D01*
X58020Y157950D01*
X56980D01*
X55976Y157680D01*
X55075Y157160D01*
X54339Y156425D01*
X53820Y155525D01*
X53550Y154520D01*
Y153480D01*
X53820Y152476D01*
X54339Y151575D01*
X55075Y150839D01*
X55976Y150320D01*
X56980Y150050D01*
X58020D01*
X59025Y150320D01*
X59925Y150839D01*
X60660Y151575D01*
X61148Y152420D01*
X71500D01*
X72105Y152540D01*
X72618Y152883D01*
X76359Y156624D01*
X77032Y156444D01*
X77968D01*
X78873Y156686D01*
X79683Y157155D01*
X80345Y157817D01*
X80814Y158627D01*
X81056Y159532D01*
Y160468D01*
X80814Y161372D01*
X80345Y162183D01*
X79683Y162845D01*
X78873Y163314D01*
X77968Y163556D01*
D02*
G37*
G36*
X185500Y151120D02*
Y148500D01*
X188120D01*
X188000Y148950D01*
X187505Y149806D01*
X186806Y150505D01*
X185950Y151000D01*
X185500Y151120D01*
D02*
G37*
G36*
X183500D02*
X183050Y151000D01*
X182194Y150505D01*
X181494Y149806D01*
X181000Y148950D01*
X180880Y148500D01*
X183500D01*
Y151120D01*
D02*
G37*
G36*
X188120Y146500D02*
X185500D01*
Y143880D01*
X185950Y144000D01*
X186806Y144494D01*
X187505Y145194D01*
X188000Y146050D01*
X188120Y146500D01*
D02*
G37*
G36*
X183500D02*
X180880D01*
X181000Y146050D01*
X181494Y145194D01*
X182194Y144494D01*
X183050Y144000D01*
X183500Y143880D01*
Y146500D01*
D02*
G37*
G36*
X152500Y139713D02*
Y137500D01*
X154713D01*
X154633Y137798D01*
X154190Y138564D01*
X153564Y139190D01*
X152798Y139633D01*
X152500Y139713D01*
D02*
G37*
G36*
X150500Y139713D02*
X150202Y139633D01*
X149436Y139190D01*
X148810Y138564D01*
X148367Y137798D01*
X148287Y137500D01*
X150500D01*
Y139713D01*
D02*
G37*
G36*
X83000Y138713D02*
Y136500D01*
X85213D01*
X85133Y136798D01*
X84690Y137564D01*
X84064Y138190D01*
X83298Y138633D01*
X83000Y138713D01*
D02*
G37*
G36*
X81000D02*
X80702Y138633D01*
X79936Y138190D01*
X79310Y137564D01*
X78867Y136798D01*
X78787Y136500D01*
X81000D01*
Y138713D01*
D02*
G37*
G36*
X58000Y139028D02*
Y136000D01*
X61028D01*
X60867Y136602D01*
X60321Y137548D01*
X59548Y138321D01*
X58602Y138867D01*
X58000Y139028D01*
D02*
G37*
G36*
X56000D02*
X55398Y138867D01*
X54452Y138321D01*
X53680Y137548D01*
X53133Y136602D01*
X52972Y136000D01*
X56000D01*
Y139028D01*
D02*
G37*
G36*
X164662Y139662D02*
X158338D01*
Y133338D01*
X164662D01*
Y139662D01*
D02*
G37*
G36*
X153948Y205900D02*
X153052D01*
X152188Y205668D01*
X151412Y205221D01*
X150779Y204588D01*
X150332Y203812D01*
X150100Y202948D01*
Y202052D01*
X150332Y201188D01*
X150779Y200412D01*
X151412Y199779D01*
X151920Y199486D01*
Y177655D01*
X140383Y166118D01*
X140040Y165605D01*
X139920Y165000D01*
Y139239D01*
X139558Y139030D01*
X138970Y138442D01*
X138553Y137721D01*
X138338Y136916D01*
Y136084D01*
X138553Y135279D01*
X138970Y134558D01*
X139558Y133970D01*
X140279Y133553D01*
X141084Y133338D01*
X141916D01*
X142721Y133553D01*
X143442Y133970D01*
X144030Y134558D01*
X144447Y135279D01*
X144662Y136084D01*
Y136916D01*
X144447Y137721D01*
X144030Y138442D01*
X143442Y139030D01*
X143080Y139239D01*
Y164345D01*
X154618Y175882D01*
X154960Y176395D01*
X155080Y177000D01*
Y199486D01*
X155588Y199779D01*
X156221Y200412D01*
X156668Y201188D01*
X156900Y202052D01*
Y202948D01*
X156668Y203812D01*
X156221Y204588D01*
X155588Y205221D01*
X154812Y205668D01*
X153948Y205900D01*
D02*
G37*
G36*
X154713Y135500D02*
X152500D01*
Y133287D01*
X152798Y133367D01*
X153564Y133810D01*
X154190Y134436D01*
X154633Y135202D01*
X154713Y135500D01*
D02*
G37*
G36*
X150500D02*
X148287D01*
X148367Y135202D01*
X148810Y134436D01*
X149436Y133810D01*
X150202Y133367D01*
X150500Y133287D01*
Y135500D01*
D02*
G37*
G36*
X114968Y163056D02*
X114032D01*
X113128Y162814D01*
X112317Y162345D01*
X111655Y161683D01*
X111186Y160872D01*
X110944Y159968D01*
Y159032D01*
X111144Y158285D01*
X110522Y157663D01*
X110069Y156985D01*
X109910Y156185D01*
X109910Y156185D01*
Y137882D01*
X109470Y137442D01*
X109053Y136721D01*
X108838Y135916D01*
Y135084D01*
X109053Y134279D01*
X109470Y133558D01*
X110058Y132970D01*
X110779Y132553D01*
X111584Y132338D01*
X112416D01*
X113221Y132553D01*
X113942Y132970D01*
X114530Y133558D01*
X114947Y134279D01*
X115162Y135084D01*
Y135916D01*
X114947Y136721D01*
X114530Y137442D01*
X114090Y137882D01*
Y155319D01*
X114715Y155944D01*
X114968D01*
X115873Y156186D01*
X116683Y156655D01*
X117345Y157317D01*
X117814Y158127D01*
X118056Y159032D01*
Y159968D01*
X117814Y160872D01*
X117345Y161683D01*
X116683Y162345D01*
X115873Y162814D01*
X114968Y163056D01*
D02*
G37*
G36*
X85213Y134500D02*
X83000D01*
Y132287D01*
X83298Y132367D01*
X84064Y132810D01*
X84690Y133436D01*
X85133Y134202D01*
X85213Y134500D01*
D02*
G37*
G36*
X81000D02*
X78787D01*
X78867Y134202D01*
X79310Y133436D01*
X79936Y132810D01*
X80702Y132367D01*
X81000Y132287D01*
Y134500D01*
D02*
G37*
G36*
X61028Y134000D02*
X58000D01*
Y130972D01*
X58602Y131133D01*
X59548Y131679D01*
X60321Y132452D01*
X60867Y133398D01*
X61028Y134000D01*
D02*
G37*
G36*
X56000D02*
X52972D01*
X53133Y133398D01*
X53680Y132452D01*
X54452Y131679D01*
X55398Y131133D01*
X56000Y130972D01*
Y134000D01*
D02*
G37*
G36*
X186000Y131120D02*
Y128500D01*
X188620D01*
X188500Y128950D01*
X188005Y129806D01*
X187306Y130506D01*
X186450Y131000D01*
X186000Y131120D01*
D02*
G37*
G36*
X184000D02*
X183550Y131000D01*
X182694Y130506D01*
X181994Y129806D01*
X181500Y128950D01*
X181380Y128500D01*
X184000D01*
Y131120D01*
D02*
G37*
G36*
X188620Y126500D02*
X186000D01*
Y123880D01*
X186450Y124000D01*
X187306Y124495D01*
X188005Y125194D01*
X188500Y126050D01*
X188620Y126500D01*
D02*
G37*
G36*
X184000D02*
X181380D01*
X181500Y126050D01*
X181994Y125194D01*
X182694Y124495D01*
X183550Y124000D01*
X184000Y123880D01*
Y126500D01*
D02*
G37*
G36*
X78468Y113056D02*
X77532D01*
X76627Y112814D01*
X75817Y112345D01*
X75155Y111683D01*
X74686Y110872D01*
X74444Y109968D01*
Y109032D01*
X74686Y108127D01*
X75155Y107317D01*
X75817Y106655D01*
X76627Y106186D01*
X77532Y105944D01*
X78468D01*
X79373Y106186D01*
X80183Y106655D01*
X80845Y107317D01*
X81314Y108127D01*
X81556Y109032D01*
Y109968D01*
X81314Y110872D01*
X80845Y111683D01*
X80183Y112345D01*
X79373Y112814D01*
X78468Y113056D01*
D02*
G37*
G36*
X57520Y110950D02*
X56480D01*
X55475Y110680D01*
X54575Y110161D01*
X53839Y109425D01*
X53320Y108525D01*
X53050Y107520D01*
Y106480D01*
X53320Y105475D01*
X53839Y104575D01*
X54575Y103840D01*
X55475Y103320D01*
X56480Y103050D01*
X57520D01*
X58525Y103320D01*
X59425Y103840D01*
X60160Y104575D01*
X60680Y105475D01*
X60950Y106480D01*
Y107520D01*
X60680Y108525D01*
X60160Y109425D01*
X59425Y110161D01*
X58525Y110680D01*
X57520Y110950D01*
D02*
G37*
G36*
Y100950D02*
X56480D01*
X55475Y100680D01*
X54575Y100161D01*
X53839Y99425D01*
X53320Y98524D01*
X53050Y97520D01*
Y96480D01*
X53320Y95476D01*
X53839Y94575D01*
X54575Y93840D01*
X55475Y93320D01*
X56480Y93050D01*
X57520D01*
X58525Y93320D01*
X59425Y93840D01*
X60160Y94575D01*
X60680Y95476D01*
X60950Y96480D01*
Y97520D01*
X60680Y98524D01*
X60160Y99425D01*
X59425Y100161D01*
X58525Y100680D01*
X57520Y100950D01*
D02*
G37*
G36*
X47253Y78753D02*
X39747D01*
Y71247D01*
X45001D01*
X45203Y71207D01*
X45405Y71247D01*
X47253D01*
Y73095D01*
X47293Y73297D01*
X47253Y73499D01*
Y78753D01*
D02*
G37*
G36*
X47453Y45453D02*
X44500D01*
Y42500D01*
X47453D01*
Y45453D01*
D02*
G37*
G36*
X42500D02*
X39547D01*
Y42500D01*
X42500D01*
Y45453D01*
D02*
G37*
G36*
X47453Y40500D02*
X44500D01*
Y37547D01*
X47453D01*
Y40500D01*
D02*
G37*
G36*
X42500D02*
X39547D01*
Y37547D01*
X42500D01*
Y40500D01*
D02*
G37*
%LPD*%
D36*
X266000Y43000D02*
Y69000D01*
X209500Y65000D02*
X209750Y64750D01*
Y39750D02*
Y64750D01*
Y39750D02*
X210000Y39500D01*
X342500Y115500D02*
X350000D01*
X323000Y96000D02*
X342500Y115500D01*
X295000Y96000D02*
X323000D01*
X350000Y115500D02*
X357500Y123000D01*
X320000Y115500D02*
X327000Y122500D01*
X320000Y151000D02*
X327000Y144000D01*
Y122500D02*
Y144000D01*
X314464Y156535D02*
X320000Y151000D01*
X277035Y156535D02*
X314464D01*
X274325Y150825D02*
Y153825D01*
X277035Y156535D01*
X273000Y149500D02*
X274325Y150825D01*
X250750Y149250D02*
X272750D01*
X273000Y149500D01*
X250500Y149000D02*
X250750Y149250D01*
X281500Y126000D02*
Y141000D01*
X273000Y117500D02*
X281500Y126000D01*
X273000Y149500D02*
X281500Y141000D01*
X280000Y220000D02*
X301984Y241984D01*
X250500Y171000D02*
X280000Y200500D01*
X301984Y241984D02*
Y251008D01*
X280000Y200500D02*
Y220000D01*
X250500Y149000D02*
Y171000D01*
X357500Y123000D02*
Y143500D01*
X350000Y151000D02*
X357500Y143500D01*
X213500Y202500D02*
Y212500D01*
X233500Y232500D01*
X208500Y163000D02*
X213500Y168000D01*
Y202500D01*
X249750Y87750D02*
X250000Y87500D01*
X215000Y88000D02*
X215250Y87750D01*
X249750D01*
X87500Y89000D02*
X115500D01*
X131500Y73000D01*
X78000Y79500D02*
X87500Y89000D01*
X87000Y53000D02*
Y74000D01*
X92000Y79000D01*
X67500Y69000D02*
X78000Y79500D01*
X67500Y53000D02*
Y69000D01*
X56273Y106273D02*
X57000Y107000D01*
X50100Y134600D02*
X56600D01*
X35000Y119500D02*
X50100Y134600D01*
X56600D02*
X57000Y135000D01*
X35000Y50000D02*
X43500Y41500D01*
X35000Y50000D02*
Y119500D01*
X81398Y135500D02*
X82000D01*
X77398Y131500D02*
X81398Y135500D01*
X58028Y135000D02*
X61528Y131500D01*
X77398D01*
X57000Y135000D02*
X58028D01*
X46000Y150500D02*
Y159500D01*
X43500Y75000D02*
X45203Y73297D01*
X251500Y14500D02*
Y14701D01*
X220000Y38743D02*
Y39500D01*
X250000Y87500D02*
X256000Y81500D01*
Y69000D02*
Y81500D01*
X215000Y70258D02*
Y88000D01*
Y70258D02*
X219500Y65758D01*
Y65000D02*
Y65758D01*
X184750Y127750D02*
X185000Y127500D01*
X184500Y147500D02*
X184750Y147250D01*
Y127750D02*
Y147250D01*
X160500Y127500D02*
X185000D01*
X151500Y136500D02*
X160500Y127500D01*
X137500Y122500D02*
X151500Y136500D01*
X107000Y122500D02*
X137500D01*
X94000Y135500D02*
X107000Y122500D01*
X82000Y135500D02*
X94000D01*
X271327Y257173D02*
X275153Y261000D01*
X308000D01*
X311984Y257016D01*
Y251008D02*
Y257016D01*
X271327Y251665D02*
Y257173D01*
Y251665D02*
X271984Y251008D01*
X267000Y261500D02*
X271327Y257173D01*
X256500Y261500D02*
X267000D01*
X251984Y251008D02*
X252642Y251665D01*
Y257642D01*
X256500Y261500D01*
X241984Y251008D02*
X251984D01*
X231984D02*
X241984D01*
X221984D02*
X231984D01*
X221984D02*
Y257516D01*
X217500Y262000D02*
X221984Y257516D01*
X165500Y262000D02*
X217500D01*
X161984Y258484D02*
X165500Y262000D01*
X161984Y251008D02*
Y258484D01*
X151500Y144000D02*
X170500Y163000D01*
X208500D01*
X151500Y136500D02*
Y144000D01*
X112000Y156185D02*
X114500Y158685D01*
Y159500D01*
X112000Y135500D02*
Y156185D01*
X51000Y170500D02*
Y186528D01*
X56972Y192500D01*
X58000D01*
X51000Y170500D02*
X57500Y164000D01*
X46000Y150500D02*
X52000Y144500D01*
X73000D01*
X46000Y159500D02*
X50500Y164000D01*
X73000Y144500D02*
X82000Y135500D01*
X50500Y164000D02*
X57500D01*
D37*
X187000Y240000D02*
X192000Y245000D01*
X153500Y238000D02*
X155500Y240000D01*
X187000D01*
X350000Y67000D02*
Y105500D01*
X331000Y48000D02*
X350000Y67000D01*
X331000Y23000D02*
Y48000D01*
Y23000D02*
X338000Y16000D01*
X331000Y112500D02*
Y172500D01*
X320000Y105500D02*
X320698Y106198D01*
X324698D01*
X331000Y112500D01*
X323500Y180000D02*
X331000Y172500D01*
X317500Y180000D02*
X323500D01*
X219000Y187500D02*
X227000Y195500D01*
X219000Y152000D02*
Y187500D01*
X214500Y147500D02*
X219000Y152000D01*
X287500Y180000D02*
Y208000D01*
X228000Y190500D02*
X238500D01*
X222500Y185000D02*
X228000Y190500D01*
X222500Y176500D02*
Y185000D01*
X243500Y195500D02*
Y202500D01*
X238500Y190500D02*
X243500Y195500D01*
X222500Y176500D02*
X230500Y168500D01*
Y149000D02*
Y168500D01*
X229500Y180000D02*
X240000Y169500D01*
Y132000D02*
Y169500D01*
Y132000D02*
X256000Y116000D01*
X264500D01*
X273000Y107500D01*
X257500Y101500D02*
X262000Y97000D01*
X271586D01*
X280000Y88586D01*
X257500Y101500D02*
Y107000D01*
X280000Y73000D02*
Y88586D01*
X262792Y199292D02*
Y201792D01*
X244000Y180500D02*
X262792Y199292D01*
Y201792D02*
X263500Y202500D01*
X273500Y242524D02*
X281984Y251008D01*
X273500Y232500D02*
Y242524D01*
X261984Y249807D02*
Y251008D01*
X263500Y232500D02*
Y248291D01*
X261984Y249807D02*
X263500Y248291D01*
X253500Y232500D02*
Y237000D01*
X248000Y242500D02*
X253500Y237000D01*
X216000Y242500D02*
X248000D01*
X212711Y245789D02*
Y250282D01*
Y245789D02*
X216000Y242500D01*
X211984Y251008D02*
X212711Y250282D01*
X243500Y232500D02*
Y236500D01*
X240500Y239500D02*
X243500Y236500D01*
X209000Y239500D02*
X240500D01*
X202711Y245789D02*
X209000Y239500D01*
X202711Y245789D02*
Y250282D01*
X201984Y251008D02*
X202711Y250282D01*
X191984Y251008D02*
X192000Y250992D01*
Y245000D02*
Y250992D01*
X179000Y242500D02*
X181984Y245484D01*
Y251008D01*
X148500Y242500D02*
X179000D01*
X153500Y232500D02*
Y238000D01*
X143500Y237500D02*
X148500Y242500D01*
X143500Y232500D02*
Y237500D01*
X213500Y227000D02*
Y232500D01*
X209500Y223000D02*
X213500Y227000D01*
X109500Y223000D02*
X209500D01*
X200000Y225500D02*
X203321Y228820D01*
X107500Y225500D02*
X200000D01*
X203321Y232320D02*
X203500Y232500D01*
X203321Y228820D02*
Y232320D01*
X94500Y208000D02*
X109500Y223000D01*
X94500Y189500D02*
Y208000D01*
X77500Y195500D02*
X107500Y225500D01*
X77500Y190000D02*
Y195500D01*
X199500Y180000D02*
Y189000D01*
X193500Y195000D02*
X199500Y189000D01*
X181000Y195000D02*
X193500D01*
X173500Y202500D02*
X181000Y195000D01*
X160500Y180000D02*
Y181079D01*
X163500Y184079D02*
Y202500D01*
X160500Y181079D02*
X163500Y184079D01*
X141500Y165000D02*
X153500Y177000D01*
Y202500D01*
X230500Y143000D02*
Y149000D01*
X215000Y127500D02*
X230500Y143000D01*
X227000Y126000D02*
X227500D01*
X221500Y120500D02*
X227000Y126000D01*
X221500Y103500D02*
Y120500D01*
X216000Y98000D02*
X221500Y103500D01*
X195000Y98000D02*
X216000D01*
X185000Y88000D02*
X195000Y98000D01*
X209750Y64750D02*
X220500Y54000D01*
X313000Y73000D02*
X328000D01*
X220500Y54000D02*
X259500D01*
X276000Y69000D02*
X280000Y73000D01*
X266000Y69000D02*
X275500Y59500D01*
X324500D01*
X328000Y63000D01*
X308506Y35994D02*
X313506D01*
X308500Y36000D02*
X308506Y35994D01*
X313506D02*
X318500Y31000D01*
Y14500D02*
Y31000D01*
X312500Y8500D02*
X318500Y14500D01*
X215500Y8500D02*
X312500D01*
X208000Y16000D02*
X215500Y8500D01*
X208000Y16000D02*
Y31500D01*
X200000Y39500D02*
X208000Y31500D01*
X288500Y21500D02*
X302500D01*
X308000Y16000D01*
X281500Y14500D02*
X288500Y21500D01*
X83500Y118500D02*
X92000Y110000D01*
Y109000D02*
Y110000D01*
X63500Y118500D02*
X83500D01*
X57000Y125000D02*
X63500Y118500D01*
X55000Y40000D02*
X62000Y33000D01*
X67500D01*
X55000Y40000D02*
Y53500D01*
X43500Y65000D02*
X55000Y53500D01*
X52000Y23000D02*
X77000D01*
X87000Y33000D01*
X43500Y31500D02*
X52000Y23000D01*
X281500Y14500D02*
Y37500D01*
X276000Y43000D02*
X281500Y37500D01*
X194500Y34000D02*
X200000Y39500D01*
X194500Y14500D02*
Y34000D01*
X185000Y79500D02*
X199500Y65000D01*
X185000Y79500D02*
Y88000D01*
X208500Y114500D02*
Y141500D01*
X214500Y147500D01*
X208500Y114500D02*
X215000Y108000D01*
X141500Y136500D02*
Y165000D01*
X83500Y170500D02*
X94500Y159500D01*
X70000Y170500D02*
X83500D01*
X58000Y182500D02*
X70000Y170500D01*
X71500Y154000D02*
X77500Y160000D01*
X57500Y154000D02*
X71500D01*
X92000Y79000D02*
X92040Y78960D01*
X57000Y95701D02*
Y97000D01*
D38*
X77500Y160000D02*
D03*
Y190000D02*
D03*
X199500Y180000D02*
D03*
X229500D02*
D03*
X274000Y180500D02*
D03*
X244000D02*
D03*
X281500Y14500D02*
D03*
X251500D02*
D03*
X227500Y107000D02*
D03*
X257500D02*
D03*
X185000Y88000D02*
D03*
X215000D02*
D03*
Y108000D02*
D03*
X185000D02*
D03*
X214500Y147500D02*
D03*
X184500D02*
D03*
X78000Y79500D02*
D03*
Y109500D02*
D03*
X92000Y79000D02*
D03*
Y109000D02*
D03*
X250000Y87500D02*
D03*
X280000D02*
D03*
X227500Y126000D02*
D03*
X257500D02*
D03*
X190500Y180000D02*
D03*
X160500D02*
D03*
X287500D02*
D03*
X317500D02*
D03*
X338000Y16000D02*
D03*
X308000D02*
D03*
X338500Y36000D02*
D03*
X308500D02*
D03*
X224500Y14500D02*
D03*
X194500D02*
D03*
X114500Y189500D02*
D03*
Y159500D02*
D03*
X215000Y127500D02*
D03*
X185000D02*
D03*
X94500Y189500D02*
D03*
Y159500D02*
D03*
D39*
X354331Y19685D02*
D03*
X330709Y216535D02*
D03*
X51181D02*
D03*
X118110Y19685D02*
D03*
D40*
X87000Y33000D02*
D03*
X67500D02*
D03*
D41*
X87000Y53000D02*
D03*
X67500D02*
D03*
X230500Y149000D02*
D03*
D42*
X43500Y41500D02*
D03*
Y75000D02*
D03*
X328000Y73000D02*
D03*
D43*
X43500Y31500D02*
D03*
Y65000D02*
D03*
X328000Y63000D02*
D03*
D44*
X57000Y125000D02*
D03*
Y135000D02*
D03*
Y97000D02*
D03*
Y107000D02*
D03*
X58000Y182500D02*
D03*
Y192500D02*
D03*
X57500Y154000D02*
D03*
Y164000D02*
D03*
D45*
X273500Y232500D02*
D03*
Y202500D02*
D03*
X263500Y232500D02*
D03*
Y202500D02*
D03*
X143500Y232500D02*
D03*
X153500D02*
D03*
Y202500D02*
D03*
X163500Y232500D02*
D03*
X173500D02*
D03*
X183500D02*
D03*
X193500D02*
D03*
X203500D02*
D03*
X253500D02*
D03*
X243500D02*
D03*
X233500D02*
D03*
X223500D02*
D03*
X253500Y202500D02*
D03*
X243500D02*
D03*
X233500D02*
D03*
X223500D02*
D03*
X163500D02*
D03*
X173500D02*
D03*
X183500D02*
D03*
X193500D02*
D03*
X203500D02*
D03*
X213500D02*
D03*
Y232500D02*
D03*
D46*
X143500Y202500D02*
D03*
D47*
X276000Y69000D02*
D03*
Y43000D02*
D03*
X199500Y65000D02*
D03*
X200000Y39500D02*
D03*
D48*
X266000Y69000D02*
D03*
X256000D02*
D03*
X266000Y43000D02*
D03*
X256000D02*
D03*
X209500Y65000D02*
D03*
X219500D02*
D03*
X210000Y39500D02*
D03*
X220000D02*
D03*
D49*
X303000Y117500D02*
D03*
Y107500D02*
D03*
X273000D02*
D03*
X350000Y115500D02*
D03*
Y105500D02*
D03*
X320000D02*
D03*
X350000Y151000D02*
D03*
Y141000D02*
D03*
X320000D02*
D03*
X303000Y149500D02*
D03*
Y139500D02*
D03*
X273000D02*
D03*
D50*
Y117500D02*
D03*
X320000Y115500D02*
D03*
Y151000D02*
D03*
X273000Y149500D02*
D03*
D51*
X38362Y375024D02*
D03*
X333638D02*
D03*
X38362Y252976D02*
D03*
X333638D02*
D03*
D52*
X161984Y251008D02*
D03*
X171984D02*
D03*
X181984D02*
D03*
X191984D02*
D03*
X201984D02*
D03*
X211984D02*
D03*
X221984D02*
D03*
X231984D02*
D03*
X241984D02*
D03*
X251984D02*
D03*
X261984D02*
D03*
X271984D02*
D03*
X281984D02*
D03*
X291984D02*
D03*
X301984D02*
D03*
D53*
X311984D02*
D03*
D54*
X131500Y73000D02*
D03*
D55*
Y103000D02*
D03*
X112000Y135500D02*
D03*
X82000D02*
D03*
X151500Y136500D02*
D03*
X141500D02*
D03*
D56*
X161500D02*
D03*
D57*
X250500Y149000D02*
D03*
D58*
X295000Y96000D02*
D03*
X227000Y195500D02*
D03*
X287500Y208000D02*
D03*
X280000Y220000D02*
D03*
X313000Y73000D02*
D03*
X259500Y54000D02*
D03*
M02*
